<svg height="32" viewBox="0 0 32 32" width="32" xmlns="http://www.w3.org/2000/svg"><path d="m14 12a3.8978 3.8978 0 0 1 -4-3.777 3.9017 3.9017 0 0 1 .6533-2.0639l2.5167-3.745a1.0381 1.0381 0 0 1 1.6592 0l2.4862 3.6959a3.9693 3.9693 0 0 1 .6846 2.113 3.8978 3.8978 0 0 1 -4 3.777zm.0005-7.2368-1.6567 2.4625a1.89 1.89 0 0 0 -.3438.9973 1.9 1.9 0 0 0 2 1.777 1.9 1.9 0 0 0 2-1.777 1.98 1.98 0 0 0 -.375-1.0466z"/><path d="m7.5 26a5.385 5.385 0 0 1 -5.5-5.249 5.3837 5.3837 0 0 1 .874-2.831l3.616-5.3817a1.2168 1.2168 0 0 1 2.02-.0006l3.55 5.2777a5.4923 5.4923 0 0 1 .94 2.9356 5.385 5.385 0 0 1 -5.5 5.249zm0-11.38-2.9351 4.3668a3.3586 3.3586 0 0 0 -.5649 1.7642 3.3855 3.3855 0 0 0 3.5 3.249 3.3855 3.3855 0 0 0 3.5-3.249 3.4354 3.4354 0 0 0 -.63-1.867z"/><path d="m25 2-5 5 1.4141 1.4141 2.5859-2.586v10.1719a4.0045 4.0045 0 0 1 -4 4h-4v2h4a6.0066 6.0066 0 0 0 6-6v-10.1719l2.5859 2.586 1.4141-1.4141z"/><path d="m2 28h28v2h-28z"/><path d="m0 0h32v32h-32z" fill="none"/></svg>