<?xml version="1.0" encoding="utf-8"?>
<!-- Generator: Adobe Illustrator 27.4.0, SVG Export Plug-In . SVG Version: 6.00 Build 0)  -->
<svg version="1.1" xmlns="http://www.w3.org/2000/svg" xmlns:xlink="http://www.w3.org/1999/xlink" x="0px" y="0px"
	 viewBox="0 0 566.9 566.9" style="enable-background:new 0 0 566.9 566.9;" xml:space="preserve">
<style type="text/css">
	.st0{fill:#020203;stroke:#000000;stroke-width:0.25;stroke-miterlimit:10;}
	.st1{enable-background:new    ;}
</style>
<g id="Ebene_1">
	<g id="Ebene_1_00000056388267572482884730000006152242686241619624_">
		<path class="st0" d="M497.4,363.3c8.1-12.8,12.9-27.9,12.9-44.2c0-45.6-36.9-82.5-82.5-82.5l-10.3,0.6
			c-5.3-69.5-63.3-124.3-134-124.3c-55.7,0-103.1,34-123.7,82.5c-56.9,0-103.1,46.2-103.1,103.1c0,56.9,46.2,103.1,103.1,103.1
			l24,0.1v-41.2h-24c-34.2,0-61.9-27.7-61.9-61.9c0-34.2,27.7-61.9,61.9-61.9c7.7,0,15.1,1.4,21.9,3.9
			c8.1-48.9,50.4-86.4,101.9-86.4c56.9,0,103.1,46.2,103.1,103.1v20.6h41.2c22.8,0,41.1,18.5,41.1,41.2c0,8.6-2.7,16.7-7.2,23.3"/>
		<path class="st0" d="M461.8,342.4"/>
		<path class="st0" d="M497.4,363.3"/>
	</g>
	<g id="Ebene_2_00000098939094681461996320000012829018906740382125_">
	</g>
</g>
<g id="Ebene_2">
	<g>
		<g class="st1">
			<path d="M212.3,417l15.7-15.5c14.8,13.2,35.4,22,56.9,22c27,0,43.1-11.6,43.1-28.8c0-18.1-14.9-23.9-34.4-31.2L264,352.2
				c-19.2-7-41.7-19.6-41.7-45.6c0-27.1,27.4-47,64.9-47c24.4,0,46.2,9.1,60.7,22L333.9,296c-12.6-10.2-27.7-16.6-46.8-16.6
				c-23.1,0-38.4,10-38.4,25.9c0,17.1,18,23.5,34.1,29.3l29.4,10.9c23.8,8.8,42.5,21,42.5,47.4c0,28-26.9,50.4-70.2,50.4
				C255.5,443.3,230.3,433.1,212.3,417z"/>
		</g>
	</g>
</g>
</svg>
