<?xml version="1.0" encoding="utf-8"?>
<!-- Generator: Adobe Illustrator 24.2.2, SVG Export Plug-In . SVG Version: 6.00 Build 0)  -->
<svg version="1.1" id="Ebene_1" xmlns="http://www.w3.org/2000/svg" xmlns:xlink="http://www.w3.org/1999/xlink" x="0px" y="0px"
	 viewBox="0 0 566.9 566.9" style="enable-background:new 0 0 566.9 566.9;" xml:space="preserve">
<style type="text/css">
	.st0{fill:none;stroke:#020203;stroke-width:22.2222;stroke-linecap:round;stroke-linejoin:round;stroke-miterlimit:44.4444;}
	.st1{fill:none;stroke:#020203;stroke-width:20;stroke-linecap:round;stroke-linejoin:round;stroke-miterlimit:44.4444;}
	.st2{fill:none;stroke:#020203;stroke-width:12;stroke-linecap:round;stroke-linejoin:round;stroke-miterlimit:44.4444;}
	.st3{fill-rule:evenodd;clip-rule:evenodd;fill:#323233;}
</style>
<g id="line">
	<path class="st0" d="M33.5,420.2c24.4,0,73.2,24.4,122,24.4s81.4-24.4,130.2-24.4s89.5,24.4,130.2,24.4s56.9-24.4,122-24.4"/>
</g>
<path class="st1" d="M40.6,191.3"/>
<path class="st2" d="M178,369.8"/>
<path class="st2" d="M178,369.8"/>
<path class="st2" d="M178,369.8"/>
<path class="st2" d="M178,369.8"/>
<path class="st2" d="M178,369.8"/>
<path class="st3" d="M289.1,326.5c1,0,1.9,0.5,2.5,1.2l0.3,0.5l28.1,60.2c0.4,1,0.4,2.1-0.2,3c-0.5,0.7-1.2,1.2-2,1.3l-0.6,0.1h-6.5
	c-0.9,0-1.8-0.4-2.4-1.1l-0.4-0.6l-8.6-18.1h-22.1l-8.6,18.1c-0.4,0.9-1.2,1.5-2.2,1.7l-0.6,0.1h-6.7c-1.7,0-3.1-1.4-3.1-3.1
	c0-0.2,0-0.5,0.1-0.7l0.2-0.6l28.4-60.2c0.4-0.9,1.2-1.5,2.2-1.7l0.6,0C287.7,326.5,289.1,326.5,289.1,326.5z M338.9,326.5
	c7,0,11.7,0.3,14.3,0.9c4.2,1,7.7,3.1,10.4,6.3c2.7,3.2,4.1,7.3,4.1,11.9c0,3.8-1,7.3-2.8,10.3c-1.9,3-4.7,5.4-8,6.8
	c-1.6,0.7-3.4,1.3-5.5,1.6l-1.6,0.2l18.1,23.4c0.7,0.9,0.8,2.2,0.3,3.2c-0.4,0.8-1.2,1.4-2.1,1.6l-0.7,0.1H358
	c-0.8,0-1.5-0.3-2.1-0.8l-0.4-0.4L336,366.4v23.4c0,1.5-1,2.7-2.4,3l-0.6,0.1h-6c-1.4,0-2.7-1-3-2.4l-0.1-0.6v-60.2
	c0-1.5,1-2.7,2.4-3l0.6-0.1C326.9,326.5,338.9,326.5,338.9,326.5z M228.4,326.5c5.2,0,9.3,0.6,12.3,2c3.1,1.4,5.6,3.5,7.4,6.4
	c1.8,2.8,2.7,6,2.7,9.5c0,3.2-0.8,6.2-2.4,8.9c-0.7,1.1-1.4,2.1-2.3,3.1c1.2,0.6,2.2,1.4,3.2,2.1c2,1.7,3.6,3.8,4.7,6.2
	c1.1,2.4,1.7,5.1,1.7,7.9c0,5.7-2.1,10.6-6.3,14.5c-3.7,3.5-8.6,5.5-14.5,5.8l-1.8,0h-16.6c-1.5,0-2.7-1-3-2.4l-0.1-0.6v-60.2
	c0-1.5,1-2.7,2.4-3l0.6-0.1C216.5,326.5,228.4,326.5,228.4,326.5z M225.9,363.9h-0.3v17h4.4c5,0,7.4-0.6,8.5-1
	c1.5-0.6,2.7-1.6,3.6-2.9c0.9-1.2,1.3-2.7,1.3-4.2c0-1.8-0.6-3.6-1.9-5c-1.3-1.5-3.2-2.5-5.6-3.1
	C234.6,364.3,231.9,363.9,225.9,363.9z M286.5,27.9c106.2,1.4,192.2,88.8,191.8,194.7c-0.2,61.3-28.4,117.7-77.4,154.6
	c-1.6,1.2-3.5,1.8-5.4,1.8c-5,0-9-4-9-8.9c0-2.9,1.3-5.6,3.6-7.3c44.5-33.5,70.1-84.7,70.2-140.3c0.3-96.2-77.7-175.4-173.9-176.7
	c-95.9,1.3-173.9,80.6-173.6,176.7c0.2,55.6,25.7,106.8,70.2,140.3c3.9,3,4.7,8.6,1.8,12.6c-3,4-8.6,4.7-12.6,1.8
	c-49-37-77.2-93.3-77.4-154.6C94.5,116.6,180.5,29.3,286.5,27.9z M288.4,349.6l-5.5,11.6h10.9L288.4,349.6z M343.5,338.6h-7.6v14.4
	l7.3,0c4.5,0,6.7-0.5,7.8-0.9c1.3-0.5,2.3-1.3,3.1-2.5c0.8-1.2,1.2-2.6,1.1-4c0-1.4-0.4-2.7-1.1-3.8c-0.7-1.1-1.7-1.9-2.9-2.4
	C350.4,339.1,348.4,338.6,343.5,338.6z M229.4,338.6h-3.9v13.1h0.4c4.7,0,7-0.5,8.1-0.9c1.3-0.5,2.5-1.4,3.3-2.6
	c0.8-1.1,1.2-2.5,1.2-3.8c0-1.8-0.6-3.1-1.8-4.1C235.8,339.4,233.7,338.6,229.4,338.6z M286.5,86.4c35.8,0.4,70,15,95.1,40.5
	l23.8-19.3c1.8-1.5,4.5-1.3,6.1,0.4c1.6,1.7,1.6,4.4,0,6.1l-21,22.8c18.7,23.2,29.2,52,29.8,81.7c0.9,37.8-14,74.3-41,100.7
	c-3.6,3.5-9.2,3.4-12.7-0.2c-3.5-3.6-3.4-9.2,0.2-12.7c23.5-22.9,36.4-54.6,35.6-87.4c-0.6-24.9-9.1-49-24.2-68.8l-57.2,61.9
	c4.6,16.6-5.2,33.7-21.7,38.3c-2.7,0.7-5.4,1.1-8.2,1.1c-17.2,0-31.1-13.9-31.1-31.1c0-17.2,14-31.1,31.2-31.1c3.7,0,7.4,0.7,10.9,2
	l65.5-53.2c-21.6-21.4-50.6-33.5-81-33.9c-63,1-113.9,51.4-115.5,114.7c-0.8,32.8,12.1,64.4,35.6,87.4c3.5,3.5,3.6,9.2,0.2,12.7
	c-3.5,3.5-9.2,3.6-12.7,0.2c-27-26.4-41.9-62.9-41-100.7C154.6,145.8,213.6,87.3,286.5,86.4L286.5,86.4z"/>
</svg>
