<?xml version="1.0" encoding="utf-8"?>
<!-- Generator: Adobe Illustrator 24.2.2, SVG Export Plug-In . SVG Version: 6.00 Build 0)  -->
<svg version="1.1" id="Ebene_1" xmlns="http://www.w3.org/2000/svg" xmlns:xlink="http://www.w3.org/1999/xlink" x="0px" y="0px"
	 viewBox="0 0 566.9 566.9" style="enable-background:new 0 0 566.9 566.9;" xml:space="preserve">
<style type="text/css">
	.st0{fill:none;stroke:#020203;stroke-width:22.2222;stroke-linecap:round;stroke-linejoin:round;stroke-miterlimit:44.4444;}
	.st1{fill:none;stroke:#020203;stroke-width:20;stroke-linecap:round;stroke-linejoin:round;stroke-miterlimit:44.4444;}
	.st2{fill:none;stroke:#020203;stroke-width:14;stroke-linecap:round;stroke-linejoin:round;stroke-miterlimit:133.3333;}
	.st3{fill:none;stroke:#020203;stroke-width:12;stroke-linecap:round;stroke-linejoin:round;stroke-miterlimit:44.4444;}
</style>
<g id="line">
	<path class="st0" d="M33.5,420.2c24.4,0,73.2,24.4,122,24.4s81.4-24.4,130.2-24.4s89.5,24.4,130.2,24.4s56.9-24.4,122-24.4"/>
</g>
<line class="st1" x1="40.6" y1="191.3" x2="359.9" y2="191.3"/>
<line class="st2" x1="452" y1="231.7" x2="427.8" y2="256"/>
<line class="st2" x1="452" y1="231.7" x2="476.3" y2="256"/>
<line class="st2" x1="452" y1="231.7" x2="452" y2="191.3"/>
<line class="st2" x1="452" y1="231.7" x2="452" y2="264"/>
<line class="st2" x1="452" y1="150.9" x2="427.8" y2="126.6"/>
<line class="st2" x1="452" y1="150.9" x2="476.3" y2="126.6"/>
<line class="st2" x1="452" y1="150.9" x2="452" y2="191.3"/>
<line class="st2" x1="452" y1="150.9" x2="452" y2="118.5"/>
<line class="st2" x1="452" y1="191.3" x2="417" y2="171.1"/>
<line class="st2" x1="452" y1="191.3" x2="487" y2="211.5"/>
<line class="st2" x1="452" y1="191.3" x2="417" y2="211.5"/>
<line class="st2" x1="452" y1="191.3" x2="487" y2="171.1"/>
<line class="st2" x1="487" y1="211.5" x2="495.9" y2="244.6"/>
<line class="st2" x1="487" y1="211.5" x2="520.2" y2="202.6"/>
<line class="st2" x1="487" y1="211.5" x2="515" y2="227.7"/>
<line class="st2" x1="417" y1="171.1" x2="383.9" y2="180"/>
<line class="st2" x1="417" y1="171.1" x2="408.2" y2="138"/>
<line class="st2" x1="417" y1="171.1" x2="389" y2="154.9"/>
<line class="st2" x1="487" y1="171.1" x2="520.2" y2="180"/>
<line class="st2" x1="487" y1="171.1" x2="495.9" y2="138"/>
<line class="st2" x1="487" y1="171.1" x2="515" y2="154.9"/>
<line class="st2" x1="417" y1="211.5" x2="408.2" y2="244.6"/>
<line class="st2" x1="417" y1="211.5" x2="383.9" y2="202.6"/>
<line class="st2" x1="417" y1="211.5" x2="389" y2="227.7"/>
<line class="st3" x1="178" y1="231.7" x2="178" y2="369.8"/>
<path class="st3" d="M143.5,335.3"/>
<path class="st3" d="M178,369.8"/>
<path class="st3" d="M178,369.8"/>
<line class="st3" x1="178" y1="228.1" x2="141.3" y2="264.7"/>
<line class="st3" x1="178" y1="228.1" x2="214.7" y2="264.7"/>
<line class="st3" x1="178" y1="369.8" x2="214.6" y2="333.2"/>
<line class="st3" x1="178" y1="369.8" x2="141.7" y2="333.5"/>
</svg>
