<?xml version="1.0" encoding="UTF-8" standalone="no"?>
<!DOCTYPE svg PUBLIC "-//W3C//DTD SVG 1.1//EN" "http://www.w3.org/Graphics/SVG/1.1/DTD/svg11.dtd">
<svg width="100%" height="100%" viewBox="0 0 48 48" version="1.1" xmlns="http://www.w3.org/2000/svg" xmlns:xlink="http://www.w3.org/1999/xlink" xml:space="preserve" xmlns:serif="http://www.serif.com/" style="fill-rule:evenodd;clip-rule:evenodd;stroke-linejoin:round;stroke-miterlimit:2;">
    <g id="Capabilities">
        <g id="Combined-Shape" transform="matrix(1,0,0,1,-0.000111164,0.450091)">
            <path d="M23.986,1C37.28,1.18 48.04,12.113 48,25.376C47.979,33.051 44.45,40.105 38.317,44.732C38.113,44.884 37.876,44.959 37.639,44.959C37.297,44.959 36.958,44.807 36.738,44.512C36.362,44.014 36.46,43.31 36.958,42.934C42.526,38.734 45.727,32.332 45.747,25.369C45.781,13.332 36.017,3.411 23.983,3.249C11.98,3.411 2.215,13.335 2.249,25.369C2.269,32.332 5.47,38.734 11.038,42.934C11.533,43.31 11.631,44.017 11.258,44.512C10.886,45.006 10.178,45.105 9.683,44.732C3.55,40.105 0.021,33.051 0,25.376C-0.037,12.113 10.723,1.18 23.986,1ZM23.986,8.323C28.66,8.394 32.86,10.317 35.885,13.396L38.858,10.981C39.089,10.795 39.421,10.819 39.624,11.032C39.827,11.245 39.827,11.581 39.627,11.798L36.999,14.646C39.258,17.45 40.637,20.996 40.735,24.878C40.853,29.596 38.984,34.189 35.6,37.484C35.157,37.918 34.442,37.907 34.008,37.464C33.575,37.02 33.585,36.305 34.029,35.872C36.965,33.013 38.587,29.027 38.482,24.935C38.401,21.687 37.284,18.714 35.451,16.322L28.295,24.075C28.386,24.407 28.437,24.756 28.437,25.115C28.437,27.259 26.693,29.007 24.545,29.007C22.398,29.007 20.654,27.259 20.654,25.115C20.654,22.968 22.398,21.223 24.545,21.223C25.03,21.223 25.494,21.311 25.92,21.474L34.124,14.819C31.516,12.238 27.946,10.632 23.983,10.571C16.091,10.693 9.721,17.003 9.521,24.935C9.419,29.03 11.042,33.013 13.975,35.872C14.418,36.305 14.429,37.017 13.995,37.464C13.775,37.687 13.484,37.802 13.189,37.802C12.904,37.802 12.623,37.697 12.403,37.484C9.023,34.189 7.153,29.596 7.272,24.878C7.502,15.737 14.845,8.461 23.986,8.323Z" style="fill:rgb(49,49,50);"/>
        </g>
        <g transform="matrix(0.727273,0,0,0.727273,15.2761,30.1364)">
            <path d="M13,14L11,14L11,9L13,9M13,18L11,18L11,16L13,16M1,21L23,21L12,2L1,21Z" style="fill-rule:nonzero;"/>
        </g>
    </g>
</svg>
