<?xml version="1.0" encoding="utf-8"?>
<!-- Generator: Adobe Illustrator 24.2.2, SVG Export Plug-In . SVG Version: 6.00 Build 0)  -->
<svg version="1.1" id="Ebene_1" xmlns="http://www.w3.org/2000/svg" xmlns:xlink="http://www.w3.org/1999/xlink" x="0px" y="0px"
	 viewBox="0 0 566.9 566.9" style="enable-background:new 0 0 566.9 566.9;" xml:space="preserve">
<style type="text/css">
	.st0{fill:#020203;}
	.st1{fill:none;stroke:#020203;stroke-width:9;stroke-linecap:round;stroke-linejoin:round;stroke-miterlimit:133.3333;}
</style>
<g id="Ebene_1_1_">
	<path class="st0" d="M170.2,411.7c-56.9,0-103.1-46.2-103.1-103.1s46.2-103.1,103.1-103.1c20.6-48.5,68-82.5,123.7-82.5
		c70.7,0,128.7,54.8,134,124.3l10.3-0.6c45.6,0,82.5,36.9,82.5,82.5s-36.9,82.5-82.5,82.5l-37.4-0.6l0.3-40.7h37.1
		c22.8,0,41.2-18.5,41.2-41.2S461.1,288,438.3,288h-41.2v-20.6c0-56.9-46.2-103.1-103.1-103.1c-51.5,0-93.8,37.5-101.9,86.4
		c-6.8-2.5-14.2-3.9-21.9-3.9c-34.2,0-61.9,27.7-61.9,61.9s27.7,61.9,61.9,61.9h24v41.2"/>
	<line class="st1" x1="145.3" y1="205.3" x2="121.1" y2="229.5"/>
	<line class="st1" x1="145.3" y1="205.3" x2="169.6" y2="229.5"/>
	<line class="st1" x1="145.3" y1="205.3" x2="145.3" y2="164.9"/>
	<line class="st1" x1="145.3" y1="205.3" x2="145.3" y2="237.6"/>
	<line class="st1" x1="145.3" y1="124.5" x2="121.1" y2="100.2"/>
	<line class="st1" x1="145.3" y1="124.5" x2="169.6" y2="100.2"/>
	<line class="st1" x1="145.3" y1="124.5" x2="145.3" y2="164.9"/>
	<line class="st1" x1="145.3" y1="124.5" x2="145.3" y2="92.1"/>
	<line class="st1" x1="145.3" y1="164.9" x2="110.3" y2="144.7"/>
	<line class="st1" x1="145.3" y1="164.9" x2="180.3" y2="185.1"/>
	<line class="st1" x1="145.3" y1="164.9" x2="110.3" y2="185.1"/>
	<line class="st1" x1="145.3" y1="164.9" x2="180.3" y2="144.7"/>
	<line class="st1" x1="180.3" y1="185.1" x2="189.2" y2="218.2"/>
	<line class="st1" x1="180.3" y1="185.1" x2="213.5" y2="176.2"/>
	<line class="st1" x1="180.3" y1="185.1" x2="208.3" y2="201.3"/>
	<line class="st1" x1="110.3" y1="144.7" x2="77.2" y2="153.6"/>
	<line class="st1" x1="110.3" y1="144.7" x2="101.5" y2="111.6"/>
	<line class="st1" x1="110.3" y1="144.7" x2="82.3" y2="128.5"/>
	<line class="st1" x1="180.3" y1="144.7" x2="213.5" y2="153.6"/>
	<line class="st1" x1="180.3" y1="144.7" x2="189.2" y2="111.6"/>
	<line class="st1" x1="180.3" y1="144.7" x2="208.3" y2="128.5"/>
	<line class="st1" x1="110.3" y1="185.1" x2="101.5" y2="218.2"/>
	<line class="st1" x1="110.3" y1="185.1" x2="77.2" y2="176.2"/>
	<line class="st1" x1="110.3" y1="185.1" x2="82.3" y2="201.3"/>
</g>
<g id="Ebene_2_1_">
</g>
<path d="M325.3,156.5c4.5-6.8,10.2-12.8,16.7-17.8c11.8-9,25.9-14.3,40.7-15.2c14.8-0.9,29.5,2.5,42.3,10
	c12.8,7.4,23.1,18.5,29.6,31.8c6.5,13.3,8.9,28.2,7,42.9c-2,14.7-8.2,28.4-18,39.5c-2.2,2.5-4.5,4.8-6.9,6.9l-14.8-13.1
	c2.6-2,4.9-4.3,7.1-6.8c9.7-11,14.6-25.4,13.7-40.1c-0.9-14.6-7.6-28.3-18.6-38c-8.2-7.2-18.4-11.9-29.2-13.3
	c-10.8-1.5-21.9,0.3-31.7,5.2c-9.5,4.7-17.5,12-23,21"/>
<path d="M447.7,129.8c-1.9-1.7-3.1-4.1-3.2-6.7c-0.2-2.6,0.7-5.1,2.4-7.1l12.9-14.7c1.7-1.9,4.1-3.1,6.7-3.3
	c2.6-0.2,5.1,0.7,7.1,2.4c1.9,1.7,3.1,4.1,3.3,6.7c0.2,2.6-0.7,5.1-2.4,7.1L461.5,129c-1.7,1.9-4.1,3.1-6.7,3.2
	C452.2,132.4,449.6,131.5,447.7,129.8z"/>
<path d="M471.3,285.2l-14.7-12.9c-1.9-1.7-3.1-4.1-3.3-6.7c-0.2-2.6,0.7-5.1,2.4-7.1c1.7-1.9,4.1-3.1,6.7-3.3
	c2.6-0.2,5.1,0.7,7.1,2.4l14.7,12.9c1.9,1.7,3.1,4.1,3.3,6.7c0.2,2.6-0.7,5.1-2.4,7.1c-1.7,1.9-4.1,3.1-6.7,3.3
	C475.8,287.8,473.3,286.9,471.3,285.2z"/>
<path d="M305.3,138.8l-14.7-12.9c-1.9-1.7-3.1-4.1-3.3-6.7c-0.2-2.6,0.7-5.1,2.4-7.1c1.7-1.9,4.1-3.1,6.7-3.3
	c2.6-0.2,5.1,0.7,7.1,2.4l14.7,12.9c1.9,1.7,3.1,4.1,3.3,6.7c0.2,2.6-0.7,5.1-2.4,7.1c-1.7,1.9-4.1,3.1-6.7,3.3
	C309.7,141.4,307.2,140.5,305.3,138.8z"/>
<path d="M374.6,104.5c-1.8-1.8-2.7-4.2-2.7-6.7l-2-19.2c-0.1-1.3,0.1-2.6,0.5-3.9c0.4-1.2,1.1-2.4,2-3.4c0.9-1,1.9-1.8,3.1-2.4
	c1.2-0.6,2.5-0.9,3.8-1s2.6,0.1,3.9,0.5c1.2,0.4,2.4,1.1,3.4,2c1,0.9,1.8,1.9,2.4,3.1c0.6,1.2,0.9,2.5,1,3.8l0.4,19.3
	c0,2.4-0.9,4.7-2.4,6.5c-1.6,1.8-3.8,3-6.2,3.2C379.1,106.7,376.6,106,374.6,104.5z"/>
<path d="M482,199.2c-1.8-1.8-2.7-4.2-2.7-6.7c0-2.4,0.9-4.7,2.4-6.5c1.6-1.8,3.8-3,6.2-3.2l19.2-2c2.7-0.2,5.3,0.7,7.3,2.5
	c2,1.8,3.2,4.2,3.4,6.9c0.2,2.7-0.7,5.3-2.5,7.3c-1.8,2-4.2,3.2-6.9,3.4l-19.3,0.4C486.6,201.4,484.1,200.7,482,199.2z"/>
<g>
	<path d="M241.9,510.8c-0.3,1.2-0.6,2.1-1.1,2.8c-0.5,0.7-1.1,1.2-2,1.6c-0.9,0.4-2.1,0.6-3.5,0.7c-1.4,0.1-3.2,0.2-5.4,0.2
		c-2.5,0-4.4-0.1-5.9-0.2c-1.5-0.1-2.7-0.4-3.5-0.7c-0.9-0.4-1.5-0.9-1.9-1.6c-0.4-0.7-0.7-1.6-0.9-2.8l-13.4-59.9h-0.1l-12.6,59.9
		c-0.2,1.1-0.5,2-0.9,2.7c-0.4,0.7-1,1.3-1.8,1.6c-0.8,0.4-2,0.6-3.4,0.8c-1.4,0.1-3.3,0.2-5.7,0.2c-2.5,0-4.5-0.1-6-0.2
		c-1.5-0.1-2.7-0.4-3.5-0.7c-0.9-0.4-1.5-0.9-1.9-1.6c-0.4-0.7-0.7-1.6-1-2.8l-19-82.5c-0.4-1.8-0.6-3.1-0.6-4.1
		c0-1,0.2-1.8,0.7-2.3c0.5-0.5,1.4-0.9,2.6-1c1.2-0.1,2.9-0.2,5.1-0.2c2,0,3.6,0,4.8,0.1c1.2,0.1,2.1,0.2,2.7,0.5
		c0.6,0.3,1,0.7,1.2,1.2c0.2,0.5,0.4,1.2,0.5,2.2l14.6,72.4h0.1l15.2-71.9c0.2-0.9,0.4-1.7,0.7-2.3c0.3-0.6,0.8-1,1.4-1.4
		c0.7-0.3,1.6-0.5,2.7-0.7c1.2-0.1,2.7-0.2,4.6-0.2c2.1,0,3.7,0,4.9,0.1c1.2,0.1,2.2,0.3,2.8,0.6c0.7,0.3,1.2,0.8,1.5,1.4
		c0.3,0.6,0.5,1.4,0.7,2.3l15.7,71.9h0.1l14.6-72.2c0.1-0.8,0.3-1.4,0.5-2c0.2-0.6,0.6-1,1.2-1.3c0.6-0.3,1.5-0.5,2.6-0.7
		c1.1-0.1,2.7-0.2,4.7-0.2c1.9,0,3.4,0.1,4.4,0.2c1.1,0.1,1.8,0.5,2.3,1c0.5,0.5,0.7,1.3,0.6,2.4s-0.3,2.5-0.7,4.3L241.9,510.8z"/>
	<path d="M371.1,513c0,0.5-0.1,0.9-0.4,1.3c-0.2,0.4-0.7,0.7-1.3,1c-0.6,0.2-1.5,0.4-2.5,0.6c-1,0.1-2.3,0.2-3.9,0.2
		c-1.5,0-2.8-0.1-3.9-0.2c-1-0.1-1.8-0.3-2.5-0.6c-0.6-0.2-1-0.6-1.3-1c-0.3-0.4-0.4-0.8-0.4-1.3v-77h-0.1L330.7,513
		c-0.2,0.6-0.5,1.2-0.8,1.6c-0.4,0.4-0.9,0.7-1.6,1s-1.5,0.4-2.5,0.5s-2.3,0.1-3.7,0.1c-1.5,0-2.7-0.1-3.7-0.2
		c-1-0.1-1.9-0.3-2.5-0.6c-0.7-0.3-1.2-0.6-1.6-1c-0.4-0.4-0.6-0.9-0.8-1.4l-23.4-76.9h-0.1v77c0,0.5-0.1,0.9-0.4,1.3
		c-0.2,0.4-0.7,0.7-1.3,1c-0.6,0.2-1.5,0.4-2.5,0.6c-1,0.1-2.3,0.2-3.9,0.2c-1.5,0-2.8-0.1-3.9-0.2c-1-0.1-1.9-0.3-2.5-0.6
		c-0.6-0.2-1.1-0.6-1.3-1c-0.2-0.4-0.4-0.8-0.4-1.3v-84.3c0-2.5,0.6-4.4,1.7-5.7c1.2-1.3,2.7-2,4.6-2h11.1c2,0,3.7,0.2,5.1,0.5
		s2.6,1,3.7,1.8c1,0.9,1.9,2,2.6,3.4c0.7,1.4,1.3,3.1,1.8,5.2l18.1,56.4h0.3l18.7-56.2c0.6-2,1.2-3.8,1.8-5.2
		c0.7-1.4,1.4-2.6,2.3-3.4c0.9-0.9,1.9-1.5,3.1-1.9c1.2-0.4,2.6-0.5,4.2-0.5h11.4c1.2,0,2.2,0.2,3,0.5s1.5,0.8,2.1,1.5
		c0.5,0.7,0.9,1.5,1.2,2.4c0.3,1,0.4,2,0.4,3.3V513z"/>
	<path d="M464.4,467.3c0,7.8-0.9,14.9-2.6,21c-1.7,6.2-4.3,11.4-7.7,15.8c-3.4,4.3-7.6,7.6-12.6,9.9c-5,2.3-10.8,3.4-17.4,3.4
		c-6.5,0-12.2-1-17-2.9c-4.8-1.9-8.9-4.9-12.1-8.8c-3.2-3.9-5.6-9-7.3-15.1c-1.6-6.1-2.4-13.3-2.4-21.6c0-7.6,0.9-14.5,2.6-20.6
		c1.7-6.1,4.3-11.3,7.7-15.6c3.4-4.3,7.6-7.6,12.6-9.9c5-2.3,10.8-3.4,17.5-3.4c6.3,0,11.9,1,16.7,2.9s8.9,4.8,12.1,8.8
		c3.2,3.9,5.7,8.9,7.4,14.9C463.5,452,464.4,459.1,464.4,467.3z M446.6,468.3c0-5-0.3-9.5-1-13.6s-1.9-7.6-3.5-10.5
		c-1.7-2.9-3.9-5.1-6.6-6.7c-2.8-1.6-6.2-2.4-10.3-2.4c-4.2,0-7.7,0.9-10.5,2.7c-2.8,1.8-5.1,4.2-6.8,7.1c-1.7,3-2.9,6.4-3.6,10.4
		c-0.7,4-1.1,8.2-1.1,12.6c0,5.2,0.3,9.8,1,13.9c0.7,4.1,1.8,7.6,3.5,10.6c1.6,2.9,3.8,5.2,6.6,6.7c2.8,1.5,6.2,2.3,10.4,2.3
		c4.2,0,7.7-0.9,10.5-2.6c2.8-1.8,5.1-4.1,6.8-7.2c1.7-3,2.9-6.5,3.6-10.6C446.2,477.1,446.6,472.8,446.6,468.3z"/>
</g>
</svg>
