<?xml version="1.0" encoding="utf-8"?>
<!-- Generator: Adobe Illustrator 24.2.2, SVG Export Plug-In . SVG Version: 6.00 Build 0)  -->
<svg version="1.1" id="Ebene_1" xmlns="http://www.w3.org/2000/svg" xmlns:xlink="http://www.w3.org/1999/xlink" x="0px" y="0px"
	 viewBox="0 0 800 800" style="enable-background:new 0 0 800 800;" xml:space="preserve">
<path d="M517.8,478.7 M210,425c-2.7-20.7-2.1-41.7,2-62.4c7.4-37.2,25.6-71.3,52.5-98.1c26.8-26.8,61-45.1,98.1-52.5
	c37.2-7.4,75.7-3.6,110.7,10.9c35,14.5,65,39.1,86,70.6c21.1,31.5,32.3,68.6,32.3,106.5c0,8.4-0.6,16.8-1.7,25l-50.5,0
	c1.5-8.2,2.2-16.6,2.2-25c-0.1-37.5-15-73.5-41.6-100.1c-26.6-26.5-62.5-41.5-100.1-41.6c-28,0-55.4,8.3-78.7,23.9
	c-23.3,15.6-41.5,37.7-52.2,63.6c-10.4,25.1-13.3,52.6-8.6,79.2"/>
<path d="M400,166.7c-6.6-0.1-12.9-2.7-17.6-7.4c-4.7-4.7-7.3-11-7.4-17.6v-50c0-6.6,2.6-13,7.3-17.7c4.7-4.7,11-7.3,17.7-7.3
	c6.6,0,13,2.6,17.7,7.3c4.7,4.7,7.3,11,7.3,17.7v50c-0.1,6.6-2.7,12.9-7.4,17.6C412.9,163.9,406.6,166.6,400,166.7z"/>
<path d="M708.3,425h-50c-6.6,0-13-2.6-17.7-7.3c-4.7-4.7-7.3-11-7.3-17.7c0-6.6,2.6-13,7.3-17.7c4.7-4.7,11-7.3,17.7-7.3h50
	c6.6,0,13,2.6,17.7,7.3c4.7,4.7,7.3,11,7.3,17.7c0,6.6-2.6,13-7.3,17.7C721.3,422.4,715,425,708.3,425z"/>
<path d="M141.7,425h-50c-6.6,0-13-2.6-17.7-7.3c-4.7-4.7-7.3-11-7.3-17.7c0-6.6,2.6-13,7.3-17.7c4.7-4.7,11-7.3,17.7-7.3h50
	c6.6,0,13,2.6,17.7,7.3c4.7,4.7,7.3,11,7.3,17.7c0,6.6-2.6,13-7.3,17.7C154.7,422.4,148.3,425,141.7,425z"/>
<path d="M216.7,241.7c-6.4-0.5-12.4-3.5-16.7-8.3L163.7,200c-2.4-2.4-4.3-5.2-5.6-8.3c-1.3-3.1-2-6.5-2-9.8c0-3.4,0.7-6.7,2-9.8
	c1.3-3.1,3.2-5.9,5.6-8.3c2.4-2.4,5.2-4.3,8.3-5.6c3.1-1.3,6.5-2,9.8-2c3.4,0,6.7,0.7,9.8,2c3.1,1.3,5.9,3.2,8.3,5.6l33.3,36.3
	c4.1,4.6,6.4,10.5,6.4,16.7c0,6.1-2.3,12.1-6.4,16.7C229.1,238.2,223.1,241.2,216.7,241.7z"/>
<path d="M583.3,241.7c-6.4-0.5-12.4-3.5-16.7-8.3c-4.1-4.6-6.4-10.5-6.4-16.7c0-6.1,2.3-12.1,6.4-16.7l33.3-36.3
	c4.8-4.8,11.4-7.5,18.2-7.5c6.8,0,13.3,2.7,18.2,7.5c4.8,4.8,7.5,11.4,7.5,18.2c0,6.8-2.7,13.3-7.5,18.2L600,233.3
	C595.7,238.2,589.8,241.2,583.3,241.7z"/>
<g>
	<path d="M379.4,592.3c0,12.9-1.9,24.4-5.6,34.6c-3.7,10.2-9.2,18.8-16.4,25.8c-7.2,7-16.1,12.4-26.7,16.1
		c-10.6,3.7-22.8,5.5-36.6,5.5c-12.9,0-24.6-1.7-34.8-5c-10.3-3.3-19-8.3-26.1-15c-7.1-6.7-12.5-15.1-16.3-25.1
		c-3.8-10-5.6-21.7-5.6-35.1V466.3c0-1.1,0.3-2.1,1-2.9c0.6-0.9,1.8-1.6,3.4-2.1c1.6-0.5,3.8-1,6.4-1.3c2.7-0.3,6-0.5,10.2-0.5
		c4,0,7.4,0.2,10,0.5c2.7,0.3,4.8,0.8,6.4,1.3c1.6,0.5,2.7,1.2,3.4,2.1c0.7,0.9,1,1.8,1,2.9v124c0,8.3,1,15.6,3,21.7
		c2,6.1,4.9,11.2,8.7,15.2c3.8,4,8.3,7,13.5,9c5.3,2,11.1,3,17.6,3c6.6,0,12.5-1,17.7-3.1c5.2-2.1,9.6-5.1,13.2-9
		c3.6-3.9,6.4-8.8,8.4-14.6c2-5.8,2.9-12.4,2.9-19.7V466.3c0-1.1,0.3-2.1,1-2.9c0.6-0.9,1.8-1.6,3.3-2.1c1.6-0.5,3.7-1,6.4-1.3
		c2.7-0.3,6.1-0.5,10.1-0.5c4,0,7.3,0.2,9.9,0.5c2.6,0.3,4.7,0.8,6.3,1.3c1.6,0.5,2.7,1.2,3.3,2.1c0.6,0.9,1,1.8,1,2.9V592.3z"/>
	<path d="M526.5,663.1c-0.5,1.8-1.2,3.3-2.1,4.5c-0.9,1.1-2.2,2-4.1,2.6c-1.9,0.6-4.5,1-7.8,1.1c-3.3,0.2-7.6,0.2-12.9,0.2
		c-4.2,0-7.9,0-10.9-0.1c-3-0.1-5.6-0.2-7.7-0.4c-2.1-0.2-3.8-0.5-5.2-1c-1.3-0.4-2.4-1-3.3-1.6c-0.9-0.6-1.6-1.4-2.1-2.4
		c-0.5-0.9-0.9-2.1-1.4-3.5l-61.3-186.2c-1.3-3.9-2-7-2.3-9.3c-0.3-2.3,0.3-4,1.6-5.1c1.3-1.1,3.6-1.8,6.8-2.1
		c3.2-0.3,7.6-0.4,13.4-0.4c4.9,0,8.7,0.1,11.5,0.3c2.8,0.2,4.9,0.6,6.4,1.1c1.5,0.5,2.5,1.4,3.1,2.4c0.6,1.1,1.1,2.4,1.7,4.1
		l50.1,162h0.2l49.2-161.2c0.4-1.8,1-3.3,1.6-4.5c0.6-1.1,1.7-2,3.3-2.7c1.5-0.6,3.7-1.1,6.6-1.3c2.9-0.2,6.8-0.3,11.8-0.3
		c4.9,0,8.7,0.2,11.4,0.5c2.7,0.3,4.6,1.1,5.6,2.4c1,1.2,1.3,3,1,5.3c-0.4,2.3-1.2,5.3-2.5,9.1L526.5,663.1z"/>
</g>
</svg>
