<?xml version="1.0" encoding="utf-8"?>
<!-- Generator: Adobe Illustrator 24.2.2, SVG Export Plug-In . SVG Version: 6.00 Build 0)  -->
<svg version="1.1" xmlns="http://www.w3.org/2000/svg" xmlns:xlink="http://www.w3.org/1999/xlink" x="0px" y="0px"
	 viewBox="0 0 566.9 566.9" style="enable-background:new 0 0 566.9 566.9;" xml:space="preserve">
<style type="text/css">
	.st0{fill:#020203;}
</style>
<g id="Ebene_1">
	<path class="st0" d="M172.9,418.3c-56.9,0-103.1-46.2-103.1-103.1s46.2-103.1,103.1-103.1c20.6-48.5,68-82.5,123.7-82.5
		c70.7,0,128.7,54.8,134,124.3l10.3-0.6c45.6,0,82.5,36.9,82.5,82.5s-36.9,82.5-82.5,82.5H172.9 M440.9,294.5h-41.2v-20.6
		c0-56.9-46.2-103.1-103.1-103.1c-51.5,0-93.8,37.5-101.9,86.4c-6.8-2.5-14.2-3.9-21.9-3.9c-34.2,0-61.9,27.7-61.9,61.9
		s27.7,61.9,61.9,61.9h268.1c22.8,0,41.2-18.5,41.2-41.2S463.7,294.5,440.9,294.5z"/>
	<g>
		<g>
			<path class="st0" d="M215.5,370.2c16.4-17.3,32.8-34.6,49.3-51.9c25.9-27.3,51.9-54.6,77.8-81.9c6-6.4,12.1-12.7,18.1-19.1
				c10.6-11.2-6.3-28.2-17-17c-16.4,17.3-32.8,34.6-49.3,51.9c-25.9,27.3-51.9,54.6-77.8,81.9c-6,6.4-12.1,12.7-18.1,19.1
				C187.9,364.5,204.8,381.5,215.5,370.2L215.5,370.2z"/>
		</g>
	</g>
	<g>
		<g>
			<path class="st0" d="M266.3,369c32.1-33.2,64.1-66.4,96.2-99.5c4.5-4.7,9-9.3,13.5-14c10.7-11.1-6.2-28.1-17-17
				c-32.1,33.2-64.1,66.4-96.2,99.5c-4.5,4.7-9,9.3-13.5,14C238.6,363.1,255.6,380.1,266.3,369L266.3,369z"/>
		</g>
	</g>
	<g>
		<g>
			<path class="st0" d="M316,368.5c21.4-22.2,42.8-44.3,64.2-66.5c3-3.1,6.1-6.3,9.1-9.4c10.7-11.1-6.2-28.1-17-17
				c-21.4,22.2-42.8,44.3-64.2,66.5c-3,3.1-6.1,6.3-9.1,9.4C288.3,362.6,305.3,379.6,316,368.5L316,368.5z"/>
		</g>
	</g>
	<g>
		<g>
			<path class="st0" d="M365,368.4c15.9-15.9,31.8-31.8,47.8-47.8c10.9-10.9-6-27.9-17-17c-15.9,15.9-31.8,31.8-47.8,47.8
				C337.1,362.4,354,379.4,365,368.4L365,368.4z"/>
		</g>
	</g>
	<g>
		<g>
			<path class="st0" d="M416.2,368.5c14.4-14.4,28.8-28.8,43.2-43.2c10.9-10.9-6-27.9-17-17c-14.4,14.4-28.8,28.8-43.2,43.2
				C388.3,362.5,405.2,379.4,416.2,368.5L416.2,368.5z"/>
		</g>
	</g>
</g>
<g id="Ebene_2">
</g>
</svg>
