<?xml version="1.0" encoding="utf-8"?>
<!-- Generator: Adobe Illustrator 27.4.0, SVG Export Plug-In . SVG Version: 6.00 Build 0)  -->
<svg version="1.1" xmlns="http://www.w3.org/2000/svg" xmlns:xlink="http://www.w3.org/1999/xlink" x="0px" y="0px"
	 viewBox="0 0 566.9 566.9" style="enable-background:new 0 0 566.9 566.9;" xml:space="preserve">
<style type="text/css">
	.st0{fill:#020203;stroke:#000000;stroke-width:0.25;stroke-miterlimit:10;}
	.st1{enable-background:new    ;}
</style>
<g id="Ebene_1">
	<g id="Ebene_1_00000056388267572482884730000006152242686241619624_">
		<path class="st0" d="M497.4,363.3c8.1-12.8,12.9-27.9,12.9-44.2c0-45.6-36.9-82.5-82.5-82.5l-10.3,0.6
			c-5.3-69.5-63.3-124.3-134-124.3c-55.7,0-103.1,34-123.7,82.5c-56.9,0-103.1,46.2-103.1,103.1c0,56.9,46.2,103.1,103.1,103.1
			l24,0.1v-41.2h-24c-34.2,0-61.9-27.7-61.9-61.9c0-34.2,27.7-61.9,61.9-61.9c7.7,0,15.1,1.4,21.9,3.9
			c8.1-48.9,50.4-86.4,101.9-86.4c56.9,0,103.1,46.2,103.1,103.1v20.6h41.2c22.8,0,41.1,18.5,41.1,41.2c0,8.6-2.7,16.7-7.2,23.3"/>
		<path class="st0" d="M461.8,342.4"/>
		<path class="st0" d="M497.4,363.3"/>
	</g>
	<g id="Ebene_2_00000098939094681461996320000012829018906740382125_">
	</g>
</g>
<g id="Ebene_2">
	<g>
		<g class="st1">
			<path d="M199.3,355.3c0-41.2,26.4-66.2,63.9-66.2c37.6,0,63.9,25.1,63.9,66.2c0,41.2-26.4,67.1-63.9,67.1
				C225.7,422.4,199.3,396.4,199.3,355.3z M307.5,355.3c0-32-17.6-51.8-44.3-51.8c-26.7,0-44.3,19.8-44.3,51.8
				c0,32,17.6,52.7,44.3,52.7C289.9,408,307.5,387.3,307.5,355.3z"/>
			<path d="M344.9,404.7l9.4-10.5c8.7,7.8,20.1,14.7,37.1,14.7c17.7,0,30.2-8.9,30.2-22.9c0-14.9-11.9-24.8-46.4-24.8v-12.4
				c30.8,0,41.2-10.2,41.2-23.3c0-12.2-9.7-19.8-25.1-19.8c-12.2,0-22.5,5.3-31,12.7l-10.1-10.2c11.2-9,24.6-15.6,41.8-15.6
				c25.3,0,43.5,11.5,43.5,31.7c0,15-10.6,24.7-26.4,29.7v0.8c17.6,3.6,31.5,14.6,31.5,31.8c0,22.3-21.4,35.7-48,35.7
				C369.3,422.4,354.6,414,344.9,404.7z"/>
		</g>
	</g>
</g>
</svg>
