<?xml version="1.0" encoding="UTF-8" standalone="no"?>
<!DOCTYPE svg PUBLIC "-//W3C//DTD SVG 1.1//EN" "http://www.w3.org/Graphics/SVG/1.1/DTD/svg11.dtd">
<svg width="100%" height="100%" viewBox="0 0 100 100" version="1.1" xmlns="http://www.w3.org/2000/svg" xmlns:xlink="http://www.w3.org/1999/xlink" xml:space="preserve" xmlns:serif="http://www.serif.com/" style="fill-rule:evenodd;clip-rule:evenodd;stroke-linecap:round;">
    <path d="M31,81C2,82 2,47 21,42C30,10 69,10 78,42C85,43 91,50 91,56" style="fill:none;fill-rule:nonzero;stroke:black;stroke-width:4px;"/>
    <circle cx="49.5" cy="45.4" r="1.7"/>
    <circle cx="49.5" cy="34.3" r="1.7"/>
    <circle cx="49.5" cy="56.5" r="1.7"/>
    <circle cx="67" cy="45.4" r="1.7"/>
    <circle cx="32" cy="45.4" r="1.7"/>
    <circle cx="40.7" cy="39.7" r="1.7"/>
    <circle cx="58.3" cy="39.7" r="1.7"/>
    <circle cx="58.3" cy="51" r="1.7"/>
    <circle cx="40.7" cy="51" r="1.7"/>
    <g transform="matrix(1,0,0,1,33,82)">
        <text x="0px" y="0px" style="font-family:'Arial-BoldMT', 'Arial', sans-serif;font-weight:700;font-size:27px;">P<tspan x="17.604px " y="0px ">M</tspan></text>
        <text x="39.69px" y="0px" style="font-family:'Arial-BoldMT', 'Arial', sans-serif;font-weight:700;font-size:20px;">2<tspan x="50.513px 55.77px " y="0px 0px ">.5</tspan></text>
    </g>
</svg>
