<svg viewBox="0 0 48 48" xmlns="http://www.w3.org/2000/svg"><path d="M26.573 30.746a6.373 6.373 0 0 1 6.368 6.368 6.37 6.37 0 0 1-6.364 6.363 6.376 6.376 0 0 1-6.368-6.367 1.181 1.181 0 1 1 2.364 0c0 2.204 1.793 4 4 4 2.204 0 4-1.792 4-4 0-2.204-1.792-4-4-4H9.111a1.181 1.181 0 1 1 0-2.364Zm9.218-2.26c.326 0 .589.262.589.592a.594.594 0 0 1-.593.593H5.079a.594.594 0 0 1 0-1.186ZM36.799 5C42.978 5 48 10.026 48 16.201c0 6.176-5.026 11.202-11.201 11.202H3.042a1.181 1.181 0 1 1 0-2.364h33.757c4.873 0 8.837-3.964 8.837-8.838 0-4.873-3.964-8.837-8.837-8.837-4.874 0-8.838 3.964-8.838 8.837a1.181 1.181 0 1 1-2.364 0C25.597 10.026 30.623 5 36.8 5Zm-20.245 8.447a5.332 5.332 0 0 1 5.327 5.328 5.337 5.337 0 0 1-5.327 5.33H.593a.594.594 0 0 1 0-1.185h15.964a4.15 4.15 0 0 0 4.146-4.145 4.15 4.15 0 0 0-4.146-4.146 4.15 4.15 0 0 0-4.145 4.146.594.594 0 0 1-1.186 0 5.332 5.332 0 0 1 5.328-5.328Z" fill="#313132" fill-rule="evenodd"/></svg>