<?xml version="1.0" encoding="utf-8"?>
<!-- Generator: Adobe Illustrator 27.4.0, SVG Export Plug-In . SVG Version: 6.00 Build 0)  -->
<svg version="1.1" xmlns="http://www.w3.org/2000/svg" xmlns:xlink="http://www.w3.org/1999/xlink" x="0px" y="0px"
	 viewBox="0 0 566.9 566.9" style="enable-background:new 0 0 566.9 566.9;" xml:space="preserve">
<style type="text/css">
	.st0{fill:#020203;stroke:#000000;stroke-width:0.25;stroke-miterlimit:10;}
	.st1{enable-background:new    ;}
</style>
<g id="Ebene_1">
	<g id="Ebene_1_00000056388267572482884730000006152242686241619624_">
		<path class="st0" d="M497.4,363.3c8.1-12.8,12.9-27.9,12.9-44.2c0-45.6-36.9-82.5-82.5-82.5l-10.3,0.6
			c-5.3-69.5-63.3-124.3-134-124.3c-55.7,0-103.1,34-123.7,82.5c-56.9,0-103.1,46.2-103.1,103.1c0,56.9,46.2,103.1,103.1,103.1
			l24,0.1v-41.2h-24c-34.2,0-61.9-27.7-61.9-61.9c0-34.2,27.7-61.9,61.9-61.9c7.7,0,15.1,1.4,21.9,3.9
			c8.1-48.9,50.4-86.4,101.9-86.4c56.9,0,103.1,46.2,103.1,103.1v20.6h41.2c22.8,0,41.1,18.5,41.1,41.2c0,8.6-2.7,16.7-7.2,23.3"/>
		<path class="st0" d="M461.8,342.4"/>
		<path class="st0" d="M497.4,363.3"/>
	</g>
	<g id="Ebene_2_00000098939094681461996320000012829018906740382125_">
	</g>
</g>
<g id="Ebene_2">
	<g>
		<g class="st1">
			<path d="M201.3,315h13.3l36.5,54.5l10.9,18h0.6c-0.6-8.7-1.6-18.5-1.6-27.6V315h12.2v86.7h-13.3l-36.5-54.6l-10.9-17.9h-0.6
				c0.6,8.8,1.6,18,1.6,27.1v45.4h-12.2V315z"/>
			<path d="M300.8,315h12.8v36.3h46.9V315h12.8v86.7h-12.8V361h-46.9v40.8h-12.8V315z"/>
			<path d="M391.2,391.4l6.4-7.1c5.9,5.3,13.5,9.9,25,9.9c11.9,0,20.4-6,20.4-15.4c0-10-8-16.7-31.3-16.7v-8.3
				c20.8,0,27.8-6.9,27.8-15.7c0-8.2-6.5-13.3-16.9-13.3c-8.2,0-15.1,3.5-20.9,8.5l-6.8-6.9c7.6-6,16.6-10.5,28.2-10.5
				c17,0,29.3,7.8,29.3,21.4c0,10.1-7.2,16.6-17.8,20v0.5c11.8,2.4,21.3,9.8,21.3,21.4c0,15-14.4,24.1-32.4,24.1
				C407.7,403.3,397.8,397.7,391.2,391.4z"/>
		</g>
	</g>
</g>
</svg>
