<?xml version="1.0" encoding="utf-8"?>
<!-- Generator: Adobe Illustrator 24.2.2, SVG Export Plug-In . SVG Version: 6.00 Build 0)  -->
<svg version="1.1" xmlns="http://www.w3.org/2000/svg" xmlns:xlink="http://www.w3.org/1999/xlink" x="0px" y="0px"
	 viewBox="0 0 566.9 566.9" style="enable-background:new 0 0 566.9 566.9;" xml:space="preserve">
<style type="text/css">
	.st0{fill:#020203;}
	.st1{fill:none;stroke:#020203;stroke-width:30;stroke-linecap:round;stroke-linejoin:round;stroke-miterlimit:133.3333;}
	.st2{fill:none;stroke:#020203;stroke-width:9;stroke-linecap:round;stroke-linejoin:round;stroke-miterlimit:133.3333;}
</style>
<g id="Ebene_1">
	<path class="st0" d="M170.2,411.7c-56.9,0-103.1-46.2-103.1-103.1s46.2-103.1,103.1-103.1c20.6-48.5,68-82.5,123.7-82.5
		c70.7,0,128.7,54.8,134,124.3l10.3-0.6c45.6,0,82.5,36.9,82.5,82.5s-36.9,82.5-82.5,82.5l-37.4-0.6l0.3-40.7h37.1
		c22.8,0,41.2-18.5,41.2-41.2S461.1,288,438.3,288h-41.2v-20.6c0-56.9-46.2-103.1-103.1-103.1c-51.5,0-93.8,37.5-101.9,86.4
		c-6.8-2.5-14.2-3.9-21.9-3.9c-34.2,0-61.9,27.7-61.9,61.9s27.7,61.9,61.9,61.9h24v41.2"/>
	<line class="st1" x1="356.9" y1="418.9" x2="356.9" y2="418.9"/>
	<line class="st1" x1="356.9" y1="368.4" x2="356.9" y2="368.4"/>
	<line class="st1" x1="356.9" y1="469.6" x2="356.9" y2="469.6"/>
	<line class="st1" x1="298.2" y1="393.3" x2="298.2" y2="393.3"/>
	<line class="st1" x1="298.2" y1="342.9" x2="298.2" y2="342.9"/>
	<line class="st1" x1="298.2" y1="444" x2="298.2" y2="444"/>
	<line class="st1" x1="240.4" y1="411.7" x2="240.4" y2="411.7"/>
	<line class="st1" x1="240.4" y1="361.3" x2="240.4" y2="361.3"/>
	<line class="st1" x1="240.4" y1="462.4" x2="240.4" y2="462.4"/>
	<line class="st2" x1="145.3" y1="205.3" x2="121.1" y2="229.5"/>
	<line class="st2" x1="145.3" y1="205.3" x2="169.6" y2="229.5"/>
	<line class="st2" x1="145.3" y1="205.3" x2="145.3" y2="164.9"/>
	<line class="st2" x1="145.3" y1="205.3" x2="145.3" y2="237.6"/>
	<line class="st2" x1="145.3" y1="124.5" x2="121.1" y2="100.2"/>
	<line class="st2" x1="145.3" y1="124.5" x2="169.6" y2="100.2"/>
	<line class="st2" x1="145.3" y1="124.5" x2="145.3" y2="164.9"/>
	<line class="st2" x1="145.3" y1="124.5" x2="145.3" y2="92.1"/>
	<line class="st2" x1="145.3" y1="164.9" x2="110.3" y2="144.7"/>
	<line class="st2" x1="145.3" y1="164.9" x2="180.3" y2="185.1"/>
	<line class="st2" x1="145.3" y1="164.9" x2="110.3" y2="185.1"/>
	<line class="st2" x1="145.3" y1="164.9" x2="180.3" y2="144.7"/>
	<line class="st2" x1="180.3" y1="185.1" x2="189.2" y2="218.2"/>
	<line class="st2" x1="180.3" y1="185.1" x2="213.5" y2="176.2"/>
	<line class="st2" x1="180.3" y1="185.1" x2="208.3" y2="201.3"/>
	<line class="st2" x1="110.3" y1="144.7" x2="77.2" y2="153.6"/>
	<line class="st2" x1="110.3" y1="144.7" x2="101.5" y2="111.6"/>
	<line class="st2" x1="110.3" y1="144.7" x2="82.3" y2="128.5"/>
	<line class="st2" x1="180.3" y1="144.7" x2="213.5" y2="153.6"/>
	<line class="st2" x1="180.3" y1="144.7" x2="189.2" y2="111.6"/>
	<line class="st2" x1="180.3" y1="144.7" x2="208.3" y2="128.5"/>
	<line class="st2" x1="110.3" y1="185.1" x2="101.5" y2="218.2"/>
	<line class="st2" x1="110.3" y1="185.1" x2="77.2" y2="176.2"/>
	<line class="st2" x1="110.3" y1="185.1" x2="82.3" y2="201.3"/>
</g>
<g id="Ebene_2">
</g>
</svg>
