<?xml version="1.0" encoding="utf-8"?>
<!-- Generator: Adobe Illustrator 24.2.2, SVG Export Plug-In . SVG Version: 6.00 Build 0)  -->
<svg version="1.1" xmlns="http://www.w3.org/2000/svg" xmlns:xlink="http://www.w3.org/1999/xlink" x="0px" y="0px"
	 viewBox="0 0 566.9 566.9" style="enable-background:new 0 0 566.9 566.9;" xml:space="preserve">
<style type="text/css">
	.st0{fill:#020203;}
</style>
<g id="Ebene_1">
	<path class="st0" d="M233.5,331.2c-20.7,0-40.9-6.1-58.1-17.6c-17.2-11.5-30.6-27.8-38.5-46.9c-7.9-19.1-10-40.1-5.9-60.4
		c4-20.3,14-38.9,28.6-53.5c14.6-14.6,33.2-24.6,53.5-28.6c20.3-4,41.3-2,60.4,5.9c19.1,7.9,35.4,21.3,46.9,38.5
		c11.5,17.2,17.6,37.4,17.6,58.1c0,27.7-11.1,54.3-30.7,73.8C287.7,320.1,261.2,331.1,233.5,331.2z M233.5,149.4
		c-15.3,0-30.2,4.5-42.9,13c-12.7,8.5-22.6,20.6-28.4,34.7c-5.8,14.1-7.4,29.6-4.4,44.6c3,15,10.3,28.7,21.1,39.6
		c10.8,10.8,24.6,18.2,39.6,21.1c15,3,30.5,1.5,44.6-4.4c14.1-5.8,26.2-15.7,34.7-28.4c8.5-12.7,13-27.6,13-42.9
		c0-20.5-8.2-40.1-22.7-54.6C273.5,157.6,253.9,149.5,233.5,149.4z"/>
	<path class="st0" d="M233.5,99.4c-3.6,0-7-1.5-9.6-4c-2.5-2.5-4-6-4-9.6V58.5c0-3.6,1.4-7.1,4-9.6c2.6-2.6,6-4,9.6-4s7.1,1.4,9.6,4
		c2.6,2.6,4,6,4,9.6v27.3c0,3.6-1.5,7-4,9.6C240.5,97.9,237.1,99.4,233.5,99.4z"/>
	<path class="st0" d="M233.5,408.4c-3.6,0-7-1.5-9.6-4c-2.5-2.5-4-6-4-9.6v-27.3c0-3.6,1.4-7.1,4-9.6c2.6-2.6,6-4,9.6-4
		s7.1,1.4,9.6,4c2.6,2.6,4,6,4,9.6v27.3c0,3.6-1.5,7-4,9.6C240.5,406.9,237.1,408.4,233.5,408.4z"/>
	<path class="st0" d="M401.6,240.3h-27.3c-3.6,0-7.1-1.4-9.6-4c-2.6-2.6-4-6-4-9.6c0-3.6,1.4-7.1,4-9.6c2.6-2.6,6-4,9.6-4h27.3
		c3.6,0,7.1,1.4,9.6,4c2.6,2.6,4,6,4,9.6c0,3.6-1.4,7.1-4,9.6C408.7,238.9,405.2,240.3,401.6,240.3z"/>
	<path class="st0" d="M92.6,240.3H65.3c-3.6,0-7.1-1.4-9.6-4c-2.6-2.6-4-6-4-9.6c0-3.6,1.4-7.1,4-9.6c2.6-2.6,6-4,9.6-4h27.3
		c3.6,0,7.1,1.4,9.6,4c2.6,2.6,4,6,4,9.6c0,3.6-1.4,7.1-4,9.6C99.7,238.9,96.2,240.3,92.6,240.3z"/>
	<path class="st0" d="M133.5,140.3c-3.5-0.3-6.8-1.9-9.1-4.5l-19.8-18.2c-1.3-1.3-2.3-2.8-3-4.5c-0.7-1.7-1.1-3.5-1.1-5.4
		s0.4-3.7,1.1-5.4c0.7-1.7,1.7-3.2,3-4.5c1.3-1.3,2.8-2.3,4.5-3c1.7-0.7,3.5-1.1,5.4-1.1c1.8,0,3.7,0.4,5.4,1.1
		c1.7,0.7,3.2,1.7,4.5,3l18.2,19.8c2.2,2.5,3.5,5.7,3.5,9.1s-1.2,6.6-3.5,9.1C140.3,138.4,137,140.1,133.5,140.3z"/>
	<path class="st0" d="M333.4,140.3c-3.5-0.3-6.8-1.9-9.1-4.5c-2.2-2.5-3.5-5.7-3.5-9.1s1.2-6.6,3.5-9.1l18.2-19.8
		c2.6-2.6,6.2-4.1,9.9-4.1c3.7,0,7.3,1.5,9.9,4.1c2.6,2.6,4.1,6.2,4.1,9.9c0,3.7-1.5,7.3-4.1,9.9l-19.8,18.2
		C340.2,138.4,336.9,140.1,333.4,140.3z"/>
	<path class="st0" d="M114.2,359.5c-1.8,0-3.6-0.3-5.2-1c-1.7-0.7-3.2-1.7-4.4-3c-2.6-2.6-4-6-4-9.6c0-3.6,1.4-7.1,4-9.6l19.8-18.7
		c2.5-1.2,5.4-1.6,8.2-1.1c2.8,0.5,5.3,1.8,7.3,3.8c2,2,3.3,4.6,3.8,7.3c0.5,2.8,0.1,5.6-1.1,8.2l-18.2,19.8
		c-1.3,1.3-2.9,2.4-4.7,3.1C118,359.3,116.1,359.6,114.2,359.5z"/>
</g>
<g id="Ebene_2">
	<path class="st0" d="M461.1,317.4c-0.7-0.7-1.5-1.3-2.4-1.8c-5.8-3.4-13.1-1.4-16.5,4.4c-3.3,5.8-1.4,13.1,4.5,16.5
		c5.8,3.3,13.1,1.4,16.5-4.4C465.9,327.1,464.9,321.2,461.1,317.4L461.1,317.4z"/>
	<path class="st0" d="M332.7,244.7c-2.7,4.9-5.6,9.7-8.7,14.3c0.1,1,0.1,2.1,0.4,3.1c0.5,2.8,2,6.1,5.1,7.9c3.2,1.8,6.8,1.5,9.5,0.5
		c2.7-1,4.9-2.4,6.9-3.7c2-1.3,3.8-2.3,5.1-2.7c1.2-0.5,1.3-0.4,1.6-0.2s0.4,0.1,0.6,1.4c0.2,1.3,0.2,3.4,0.1,5.8
		c-0.1,2.4-0.2,5,0.3,7.8c0.5,2.8,2,6.1,5.2,8c3.1,1.8,6.8,1.4,9.4,0.4c2.7-1,4.8-2.4,6.8-3.6c2-1.3,3.8-2.3,5.1-2.8
		c1.2-0.4,1.2-0.3,1.5-0.2l0,0c0.3,0.1,0.4,0.1,0.6,1.4c0.2,1.3,0.2,3.4,0.1,5.8c-0.1,2.4-0.2,5,0.3,7.8s2,6.2,5.2,8
		s6.8,1.5,9.5,0.5c2.7-1,4.9-2.4,6.9-3.7c2-1.3,3.8-2.3,5.1-2.8c1.2-0.4,1.2-0.3,1.5-0.2s0.4,0.2,0.6,1.4c0.2,1.3,0.2,3.4,0.1,5.8
		c-0.1,2.4-0.3,5,0.2,7.8c0.6,2.8,2,6.1,5.2,7.9c3.2,1.8,6.8,1.5,9.5,0.5c2.4-0.9,4.5-2.2,6.3-3.3c0.3-0.9,0.8-1.7,1.2-2.5
		c2.5-4.3,6.2-7.3,10.5-9.1l0,0c-3.1-1.7-6.7-1.4-9.4-0.4c-2.7,1-4.9,2.4-6.9,3.7c-2,1.3-3.9,2.4-5.1,2.8c-1.2,0.4-1.2,0.3-1.5,0.2
		c-0.3-0.1-0.4-0.2-0.6-1.4c-0.2-1.3-0.2-3.4-0.1-5.8c0.1-2.4,0.3-5-0.2-7.8c-0.5-2.8-2-6.1-5.2-8c-3.2-1.8-6.8-1.5-9.5-0.5
		c-2.7,1-4.9,2.4-6.9,3.7c-2,1.3-3.8,2.3-5.1,2.8c-1.2,0.4-1.3,0.4-1.5,0.2c-0.3-0.1-0.4-0.2-0.6-1.4c-0.2-1.3-0.2-3.4-0.1-5.8
		c0.1-2.4,0.2-5-0.3-7.8c-0.5-2.8-2-6.1-5.2-8c-3.1-1.8-6.8-1.4-9.5-0.5c-2.6,0.9-4.8,2.4-6.8,3.6c-2,1.3-3.9,2.4-5.1,2.8
		c-1.2,0.4-1.3,0.4-1.5,0.2l0,0c-0.3-0.1-0.4-0.1-0.6-1.4c-0.2-1.3-0.2-3.4-0.1-5.8c0.1-2.4,0.2-5-0.3-7.8c-0.5-2.8-2-6.1-5.1-7.9
		c-3.2-1.8-6.8-1.5-9.5-0.5c-2.7,1-4.9,2.4-6.9,3.7c-2,1.3-3.8,2.3-5.1,2.7c-1.2,0.5-1.3,0.4-1.6,0.2c-0.3-0.1-0.4-0.1-0.6-1.4
		c-0.3-1.3-0.2-3.4-0.1-5.8c0.1-2.4,0.3-5-0.2-7.8C333.3,246.2,333,245.5,332.7,244.7"/>
	<path class="st0" d="M321.8,296.2c-2.6-2.6-6.2-3.2-9-2.9c-2.8,0.2-5.3,1.1-7.6,1.7c-2.3,0.7-4.3,1.3-5.6,1.4
		c-1.3,0.1-1.3,0-1.6-0.2c-0.2-0.2-0.3-0.3-0.2-1.6c0.1-1.1,0.6-2.7,1.1-4.5L298,291c-2.9,2.9-5.9,5.7-8.9,8.4
		c0.5,1.2,1.2,2.5,2.2,3.5c2.6,2.6,6.2,3.2,9,2.9c2.8-0.2,5.3-1.1,7.6-1.7c2.3-0.7,4.3-1.3,5.6-1.4c1.3-0.1,1.3,0,1.6,0.2
		c0.2,0.2,0.3,0.3,0.2,1.6c-0.1,1.3-0.7,3.3-1.4,5.6c-0.7,2.3-1.5,4.8-1.7,7.6c-0.3,2.8,0.3,6.4,2.9,9s6.2,3.2,9,2.9
		c2.8-0.2,5.3-1.1,7.6-1.7c2.3-0.7,4.3-1.3,5.6-1.4c1.3-0.1,1.3,0,1.6,0.2s0.3,0.3,0.2,1.6c-0.1,1.3-0.7,3.3-1.4,5.6
		c-0.7,2.3-1.5,4.8-1.7,7.6c-0.3,2.8,0.3,6.4,2.9,9s6.2,3.2,9,2.9c2.8-0.2,5.3-1.1,7.6-1.7c2.3-0.7,4.3-1.3,5.6-1.4
		c1.3-0.1,1.3,0,1.6,0.2c0.2,0.2,0.3,0.3,0.2,1.6c-0.1,1.3-0.7,3.3-1.4,5.6c-0.7,2.3-1.5,4.8-1.7,7.6c-0.3,2.8,0.3,6.4,2.9,9
		s6.2,3.2,9,2.9c2.6-0.2,4.8-0.9,6.9-1.5c0.6-0.8,1.2-1.5,1.9-2.2c3.5-3.5,7.9-5.5,12.5-6.1c-2.6-2.5-6.2-3-8.9-2.8
		c-2.8,0.2-5.3,1.1-7.6,1.7c-2.3,0.7-4.3,1.3-5.6,1.4c-1.3,0.1-1.3,0-1.6-0.2s-0.3-0.3-0.2-1.6c0.1-1.3,0.7-3.3,1.4-5.6
		c0.7-2.3,1.5-4.8,1.7-7.6c0.3-2.8-0.3-6.4-2.9-9s-6.2-3.2-9-2.9c-2.8,0.2-5.3,1.1-7.6,1.7c-2.3,0.7-4.3,1.3-5.6,1.4
		c-1.3,0.1-1.3,0-1.6-0.2c-0.2-0.2-0.3-0.3-0.2-1.6c0.1-1.3,0.7-3.3,1.4-5.6c0.7-2.3,1.5-4.8,1.7-7.6c0.3-2.8-0.3-6.4-2.9-9
		s-6.2-3.2-9-2.9c-2.8,0.2-5.3,1.1-7.6,1.7c-2.3,0.7-4.3,1.3-5.6,1.4c-1.3,0.1-1.3,0-1.6-0.2s-0.3-0.3-0.2-1.6
		c0.1-1.3,0.7-3.3,1.4-5.6c0.7-2.3,1.5-4.8,1.7-7.6C324.9,302.5,324.4,298.8,321.8,296.2L321.8,296.2z"/>
	
		<ellipse transform="matrix(0.3345 -0.9424 0.9424 0.3345 -102.9922 631.5021)" class="st0" cx="395.7" cy="388.7" rx="12.1" ry="12.1"/>
	<path class="st0" d="M269.9,314.5c-4.9,3.4-9.9,6.6-15.1,9.6c-0.3,0.7-0.7,1.4-1,2.2c-1,2.7-1.3,6.3,0.5,9.5s5.2,4.6,7.9,5.1
		c2.8,0.6,5.4,0.4,7.8,0.3c2.4-0.1,4.5-0.1,5.8,0.1c1.3,0.2,1.3,0.3,1.4,0.6c0.2,0.3,0.3,0.3-0.2,1.6c-0.4,1.2-1.5,3-2.7,5.1
		c-1.3,2-2.7,4.2-3.7,6.9c-1,2.7-1.3,6.3,0.5,9.5c1.8,3.2,5.2,4.7,8,5.2c2.8,0.5,5.4,0.3,7.8,0.3c2.4-0.1,4.5-0.1,5.8,0.1
		c1.3,0.2,1.3,0.3,1.4,0.6c0.2,0.3,0.2,0.3-0.2,1.5c-0.5,1.2-1.6,3-2.8,5.1c-1.3,2-2.7,4.2-3.7,6.9c-1,2.7-1.3,6.3,0.5,9.5
		c1.8,3.2,5.2,4.6,7.9,5.2c2.8,0.5,5.4,0.3,7.8,0.2c2.4-0.1,4.5-0.1,5.8,0.1c1.3,0.2,1.3,0.3,1.4,0.6c0.1,0.3,0.2,0.3-0.2,1.5
		c-0.5,1.2-1.6,3-2.8,5.1s-2.7,4.2-3.7,6.9c-1,2.7-1.3,6.3,0.5,9.5c1.8,3.2,5.2,4.6,7.9,5.2c2.5,0.4,4.9,0.3,7.2,0.3
		c0.7-0.6,1.5-1.1,2.3-1.6c4.2-2.5,9.1-3.3,13.6-2.7c-1.8-3-5.1-4.5-7.8-5c-2.8-0.5-5.4-0.3-7.8-0.2s-4.5,0.1-5.8-0.1
		s-1.3-0.3-1.4-0.6c-0.2-0.3-0.2-0.3,0.2-1.5c0.5-1.2,1.6-3,2.8-5.1s2.7-4.2,3.7-6.9c1-2.7,1.3-6.3-0.5-9.5
		c-1.8-3.2-5.2-4.6-7.9-5.2c-2.8-0.5-5.4-0.3-7.8-0.2c-2.4,0.1-4.5,0.1-5.8-0.1c-1.3-0.2-1.3-0.3-1.4-0.6c-0.2-0.3-0.2-0.3,0.2-1.5
		c0.5-1.2,1.6-3,2.8-5.1c1.3-2,2.7-4.2,3.7-6.9c1-2.7,1.3-6.3-0.5-9.5c-1.8-3.2-5.2-4.7-8-5.2c-2.8-0.5-5.4-0.3-7.8-0.3
		c-2.4,0.1-4.5,0.1-5.8-0.1c-1.3-0.2-1.3-0.3-1.4-0.6c-0.2-0.3-0.3-0.3,0.2-1.6c0.4-1.2,1.5-3,2.7-5.1c1.3-2,2.7-4.2,3.7-6.9
		c1-2.7,1.3-6.3-0.5-9.5c-1.8-3.2-5.2-4.6-7.9-5.1c-2.8-0.6-5.4-0.4-7.8-0.3c-2.4,0.1-4.5,0.1-5.8-0.1c-1.3-0.2-1.3-0.3-1.4-0.6
		c-0.2-0.3-0.3-0.3,0.2-1.6c0.4-1.2,1.5-3,2.7-5.1c1.3-2,2.7-4.2,3.7-6.9C269.5,316.6,269.8,315.6,269.9,314.5L269.9,314.5z"/>
	<path class="st0" d="M341.6,437.2c-3.8-3.9-9.7-4.8-14.7-2c-5.8,3.3-7.8,10.7-4.4,16.5c3.4,5.8,10.7,7.8,16.5,4.5
		c5.8-3.4,7.8-10.7,4.4-16.5C342.9,438.7,342.3,437.9,341.6,437.2L341.6,437.2z"/>
</g>
</svg>
