<?xml version="1.0" encoding="utf-8"?>
<!-- Generator: Adobe Illustrator 27.4.0, SVG Export Plug-In . SVG Version: 6.00 Build 0)  -->
<svg version="1.1" xmlns="http://www.w3.org/2000/svg" xmlns:xlink="http://www.w3.org/1999/xlink" x="0px" y="0px"
	 viewBox="0 0 566.9 566.9" style="enable-background:new 0 0 566.9 566.9;" xml:space="preserve">
<style type="text/css">
	.st0{fill:#020203;stroke:#000000;stroke-width:0.25;stroke-miterlimit:10;}
	.st1{enable-background:new    ;}
</style>
<g id="Ebene_1">
	<g id="Ebene_1_00000056388267572482884730000006152242686241619624_">
		<path class="st0" d="M497.4,363.3c8.1-12.8,12.9-27.9,12.9-44.2c0-45.6-36.9-82.5-82.5-82.5l-10.3,0.6
			c-5.3-69.5-63.3-124.3-134-124.3c-55.7,0-103.1,34-123.7,82.5c-56.9,0-103.1,46.2-103.1,103.1c0,56.9,46.2,103.1,103.1,103.1
			l24,0.1v-41.2h-24c-34.2,0-61.9-27.7-61.9-61.9c0-34.2,27.7-61.9,61.9-61.9c7.7,0,15.1,1.4,21.9,3.9
			c8.1-48.9,50.4-86.4,101.9-86.4c56.9,0,103.1,46.2,103.1,103.1v20.6h41.2c22.8,0,41.1,18.5,41.1,41.2c0,8.6-2.7,16.7-7.2,23.3"/>
		<path class="st0" d="M461.8,342.4"/>
		<path class="st0" d="M497.4,363.3"/>
	</g>
	<g id="Ebene_2_00000098939094681461996320000012829018906740382125_">
	</g>
</g>
<g id="Ebene_2">
	<g>
		<g class="st1">
			<path d="M195.2,332h23.1c18.2,0,30.4,5.3,30.4,20.5c0,14.7-12.2,21.5-29.9,21.5h-13.3v27.6h-10.3V332z M217.5,366.9
				c14.2,0,20.9-4.4,20.9-14.3c0-10-7.2-13.3-21.4-13.3h-11.5v27.6H217.5z"/>
			<path d="M265.1,332h12.4l15.5,37.2c1.9,4.8,3.8,9.7,5.8,14.5h0.5c1.9-4.8,3.7-9.8,5.6-14.5l15.3-37.2h12.4v69.7H323v-38.4
				c0-6.1,0.8-14.4,1.3-20.6h-0.5l-6.4,15.9l-15.3,36h-6.8l-15.3-36l-6.4-15.9h-0.5c0.5,6.2,1.3,14.5,1.3,20.6v38.4h-9.3V332z"/>
			<path d="M353.4,394.4h18v-49.8h-14.3V339c7.2-1.1,12.4-2.7,16.7-5h7.8v60.4h16.3v7.3h-44.4V394.4z"/>
			<path d="M410.5,367.6c0-22.7,9.5-34.9,25.2-34.9c15.7,0,25.2,12.2,25.2,34.9c0,22.7-9.5,35.4-25.2,35.4
				C420,403,410.5,390.3,410.5,367.6z M451.1,367.6c0-19.8-6.2-27.8-15.4-27.8c-9.2,0-15.4,8-15.4,27.8c0,19.8,6.2,28.3,15.4,28.3
				C444.9,395.9,451.1,387.4,451.1,367.6z"/>
		</g>
	</g>
	<circle cx="288" cy="192.4" r="12"/>
	<circle cx="288" cy="233.1" r="12"/>
	<circle cx="288" cy="273.8" r="12"/>
	<circle cx="242.7" cy="233.1" r="12"/>
	<circle cx="242.7" cy="271.8" r="12"/>
	<circle cx="330.7" cy="273.8" r="12"/>
	<circle cx="330.7" cy="233.1" r="12"/>
	<circle cx="288" cy="308.2" r="12"/>
	<circle cx="330.7" cy="308.2" r="12"/>
	<circle cx="369.8" cy="308.2" r="12"/>
	<circle cx="202.7" cy="271.8" r="12"/>
	<circle cx="242.7" cy="310.4" r="12"/>
</g>
</svg>
