<?xml version="1.0" encoding="UTF-8" standalone="no"?>
<!DOCTYPE svg PUBLIC "-//W3C//DTD SVG 1.1//EN" "http://www.w3.org/Graphics/SVG/1.1/DTD/svg11.dtd">
<svg width="100%" height="100%" viewBox="0 0 48 48" version="1.1" xmlns="http://www.w3.org/2000/svg" xmlns:xlink="http://www.w3.org/1999/xlink" xml:space="preserve" xmlns:serif="http://www.serif.com/" style="fill-rule:evenodd;clip-rule:evenodd;stroke-linejoin:round;stroke-miterlimit:2;">
    <g id="Capabilities">
        <g id="icon---capabilities---sensor---measure_temperature" serif:id="icon-/-capabilities-/-sensor-/-measure_temperature" transform="matrix(1,0,0,1,-3.7,-3.55271e-15)">
            <path id="Combined-Shape" d="M23.7,-0C27,-0 29.688,2.688 29.688,5.988L29.688,28.431C31.019,29.332 32.142,30.528 32.952,31.921C33.9,33.547 34.4,35.407 34.4,37.3C34.4,40.159 33.287,42.847 31.267,44.867C29.247,46.888 26.559,48 23.7,48C20.841,48 18.153,46.888 16.133,44.867C14.112,42.847 13,40.159 13,37.3C13,35.407 13.5,33.547 14.448,31.921C15.257,30.528 16.381,29.335 17.712,28.431L17.712,5.988C17.712,2.688 20.399,-0 23.7,-0ZM23.7,2.214C22.697,2.214 21.749,2.608 21.034,3.322C20.319,4.037 19.925,4.985 19.925,5.988L19.925,29.04C19.925,29.43 19.718,29.791 19.382,29.992C18.135,30.732 17.088,31.782 16.359,33.033C15.608,34.321 15.21,35.798 15.21,37.296C15.21,39.565 16.093,41.695 17.697,43.299C19.302,44.904 21.432,45.786 23.7,45.786C25.968,45.786 28.098,44.904 29.703,43.299C31.307,41.695 32.19,39.565 32.19,37.296C32.19,35.794 31.792,34.321 31.041,33.033C30.312,31.782 29.265,30.728 28.018,29.992C27.682,29.791 27.474,29.43 27.474,29.04L27.474,5.988C27.474,4.985 27.081,4.037 26.366,3.322C25.651,2.608 24.703,2.214 23.7,2.214ZM25.385,17.297L25.385,31.159C28.131,31.899 30.151,34.404 30.148,37.384C30.148,40.943 27.259,43.832 23.7,43.832C20.141,43.832 17.252,40.947 17.252,37.384C17.252,34.404 19.273,31.899 22.019,31.159L22.019,17.297L25.385,17.297Z" style="fill:rgb(49,49,50);"/>
        </g>
        <g transform="matrix(0.964474,0,0,0.964474,25.9575,2.76469)">
            <g id="weather-night.svg">
                <g>
                    <path d="M17.75,4.09L15.22,6.03L16.13,9.09L13.5,7.28L10.87,9.09L11.78,6.03L9.25,4.09L12.44,4L13.5,1L14.56,4L17.75,4.09M21.25,11L19.61,12.25L20.2,14.23L18.5,13.06L16.8,14.23L17.39,12.25L15.75,11L17.81,10.95L18.5,9L19.19,10.95L21.25,11M18.97,15.95C19.8,15.87 20.69,17.05 20.16,17.8C19.84,18.25 19.5,18.67 19.08,19.07C15.17,23 8.84,23 4.94,19.07C1.03,15.17 1.03,8.83 4.94,4.93C5.34,4.53 5.76,4.17 6.21,3.85C6.96,3.32 8.14,4.21 8.06,5.04C7.79,7.9 8.75,10.87 10.95,13.06C13.14,15.26 16.1,16.22 18.97,15.95M17.33,17.97C14.5,17.81 11.7,16.64 9.53,14.5C7.36,12.31 6.2,9.5 6.04,6.68C3.23,9.82 3.34,14.64 6.35,17.66C9.37,20.67 14.19,20.78 17.33,17.97Z" style="fill-rule:nonzero;"/>
                </g>
            </g>
        </g>
    </g>
</svg>
