<?xml version="1.0" encoding="UTF-8" standalone="no"?>
<!DOCTYPE svg PUBLIC "-//W3C//DTD SVG 1.1//EN" "http://www.w3.org/Graphics/SVG/1.1/DTD/svg11.dtd">
<svg width="100%" height="100%" viewBox="0 0 48 48" version="1.1" xmlns="http://www.w3.org/2000/svg" xmlns:xlink="http://www.w3.org/1999/xlink" xml:space="preserve" xmlns:serif="http://www.serif.com/" style="fill-rule:evenodd;clip-rule:evenodd;stroke-linejoin:round;stroke-miterlimit:2;">
    <g id="Capabilities">
        <path id="Combined-Shape" d="M23.7,-0C27,-0 29.688,2.688 29.688,5.988L29.688,28.431C31.019,29.332 32.142,30.528 32.952,31.921C33.9,33.547 34.4,35.407 34.4,37.3C34.4,40.159 33.287,42.847 31.267,44.867C29.247,46.888 26.559,48 23.7,48C20.841,48 18.153,46.888 16.133,44.867C14.112,42.847 13,40.159 13,37.3C13,35.407 13.5,33.547 14.448,31.921C15.257,30.528 16.381,29.335 17.712,28.431L17.712,5.988C17.712,2.688 20.399,-0 23.7,-0ZM23.7,2.214C22.697,2.214 21.749,2.608 21.034,3.322C20.319,4.037 19.925,4.985 19.925,5.988L19.925,29.04C19.925,29.43 19.718,29.791 19.382,29.992C18.135,30.732 17.088,31.782 16.359,33.033C15.608,34.321 15.21,35.798 15.21,37.296C15.21,39.565 16.093,41.695 17.697,43.299C19.302,44.904 21.432,45.786 23.7,45.786C25.968,45.786 28.098,44.904 29.703,43.299C31.307,41.695 32.19,39.565 32.19,37.296C32.19,35.794 31.792,34.321 31.041,33.033C30.312,31.782 29.265,30.728 28.018,29.992C27.682,29.791 27.474,29.43 27.474,29.04L27.474,5.988C27.474,4.985 27.081,4.037 26.366,3.322C25.651,2.608 24.703,2.214 23.7,2.214Z" style="fill:rgb(49,49,50);"/>
        <path id="Combined-Shape1" serif:id="Combined-Shape" d="M25.353,29L25.385,31.159C28.131,31.899 30.151,34.404 30.148,37.384C30.148,40.943 27.259,43.832 23.7,43.832C20.141,43.832 17.252,40.947 17.252,37.384C17.252,34.404 19.273,31.899 22.019,31.159L22,29L25.353,29Z" style="fill:rgb(49,49,50);"/>
    </g>
</svg>
