<?xml version="1.0" encoding="utf-8"?>
<!-- Generator: Adobe Illustrator 27.4.0, SVG Export Plug-In . SVG Version: 6.00 Build 0)  -->
<svg version="1.1" id="Ebene_1" xmlns="http://www.w3.org/2000/svg" xmlns:xlink="http://www.w3.org/1999/xlink" x="0px" y="0px"
	 viewBox="0 0 800 800" style="enable-background:new 0 0 800 800;" xml:space="preserve">
<g id="Layer_1">
</g>
<g id="Layer_2">
	<g>
		<path d="M166.7,466.7H400c56.7,0,100,43.3,100,100c0,56.7-43.3,100-100,100c-30,0-56.7-13.3-73.3-33.3
			c-13.3-13.3-10-33.3,3.3-46.7c13.3-13.3,33.3-10,46.7,3.3c3.3,6.7,13.3,10,23.3,10c20,0,33.3-13.3,33.3-33.3S420,533.3,400,533.3
			H166.7c-20,0-33.3-13.3-33.3-33.3C133.3,480,146.7,466.7,166.7,466.7z"/>
	</g>
	<g>
		<path d="M500,233.3c56.7,0,100,43.3,100,100s-43.3,100-100,100H100c-20,0-33.3-13.3-33.3-33.3c0-20,13.3-33.3,33.3-33.3h400
			c20,0,33.3-13.3,33.3-33.3c0-20-13.3-33.3-33.3-33.3c-10,0-20,3.3-23.3,10c-13.3,13.3-33.3,13.3-46.7,3.3
			c-13.3-13.3-13.3-33.3-3.3-46.7C443.3,246.7,470,233.3,500,233.3z"/>
	</g>
	<g>
		<path d="M266.7,133.3c56.7,0,100,43.3,100,100s-43.3,100-100,100H133.3c-20,0-33.3-13.3-33.3-33.3c0-20,13.3-33.3,33.3-33.3h133.3
			c20,0,33.3-13.3,33.3-33.3S286.7,200,266.7,200c-10,0-20,3.3-26.7,13.3c-10,13.3-33.3,16.7-46.7,6.7c-13.3-10-16.7-33.3-6.7-46.7
			C206.7,146.7,236.7,133.3,266.7,133.3z"/>
	</g>
	<g>
		<circle cx="650" cy="516.7" r="16.7"/>
	</g>
	<g>
		<circle cx="583.3" cy="616.7" r="16.7"/>
	</g>
	<g>
		<circle cx="716.7" cy="583.3" r="16.7"/>
	</g>
	<g>
		<circle cx="650" cy="283.3" r="16.7"/>
	</g>
	<g>
		<circle cx="716.7" cy="216.7" r="16.7"/>
	</g>
	<g>
		<circle cx="583.3" cy="183.3" r="16.7"/>
	</g>
	<g>
		<circle cx="716.7" cy="350" r="16.7"/>
	</g>
	<g>
		<circle cx="716.7" cy="450" r="16.7"/>
	</g>
</g>
</svg>
