<?xml version="1.0" encoding="utf-8"?>
<!-- Generator: Adobe Illustrator 27.4.0, SVG Export Plug-In . SVG Version: 6.00 Build 0)  -->
<svg version="1.1" xmlns="http://www.w3.org/2000/svg" xmlns:xlink="http://www.w3.org/1999/xlink" x="0px" y="0px"
	 viewBox="0 0 566.9 566.9" style="enable-background:new 0 0 566.9 566.9;" xml:space="preserve">
<style type="text/css">
	.st0{fill:#020203;stroke:#000000;stroke-width:0.25;stroke-miterlimit:10;}
	.st1{enable-background:new    ;}
</style>
<g id="Ebene_1">
	<g id="Ebene_1_00000056388267572482884730000006152242686241619624_">
		<path class="st0" d="M497.4,363.3c8.1-12.8,12.9-27.9,12.9-44.2c0-45.6-36.9-82.5-82.5-82.5l-10.3,0.6
			c-5.3-69.5-63.3-124.3-134-124.3c-55.7,0-103.1,34-123.7,82.5c-56.9,0-103.1,46.2-103.1,103.1c0,56.9,46.2,103.1,103.1,103.1
			l24,0.1v-41.2h-24c-34.2,0-61.9-27.7-61.9-61.9c0-34.2,27.7-61.9,61.9-61.9c7.7,0,15.1,1.4,21.9,3.9
			c8.1-48.9,50.4-86.4,101.9-86.4c56.9,0,103.1,46.2,103.1,103.1v20.6h41.2c22.8,0,41.1,18.5,41.1,41.2c0,8.6-2.7,16.7-7.2,23.3"/>
		<path class="st0" d="M461.8,342.4"/>
		<path class="st0" d="M497.4,363.3"/>
	</g>
	<g id="Ebene_2_00000098939094681461996320000012829018906740382125_">
	</g>
</g>
<g id="Ebene_2">
	<g>
		<g class="st1">
			<path d="M201,379.8c0-42.1,28.8-67.8,67.4-67.8c18.4,0,32.9,7.7,41.7,16.1L299.5,339c-8-7.3-18-12.3-30.8-12.3
				c-28.7,0-47.7,20.2-47.7,52.7c0,32.8,18.2,53.4,47,53.4c14.5,0,25.5-5.4,35.2-14.7l10.6,10.4c-12,12-26.8,18.8-46.6,18.8
				C229.4,447.3,201,422.2,201,379.8z"/>
			<path d="M333.1,379.2c0-41.8,26.8-67.2,64.9-67.2c38.1,0,64.9,25.4,64.9,67.2c0,41.8-26.8,68.1-64.9,68.1
				C359.8,447.3,333.1,421,333.1,379.2z M442.9,379.2c0-32.5-17.8-52.6-44.9-52.6c-27.1,0-44.9,20.1-44.9,52.6s17.8,53.5,44.9,53.5
				C425,432.7,442.9,411.7,442.9,379.2z"/>
		</g>
	</g>
</g>
</svg>
