<?xml version="1.0" encoding="utf-8"?>
<!-- Generator: Adobe Illustrator 24.2.2, SVG Export Plug-In . SVG Version: 6.00 Build 0)  -->
<svg version="1.1" xmlns="http://www.w3.org/2000/svg" xmlns:xlink="http://www.w3.org/1999/xlink" x="0px" y="0px"
	 viewBox="0 0 566.9 566.9" style="enable-background:new 0 0 566.9 566.9;" xml:space="preserve">
<style type="text/css">
	.st0{fill:#020203;}
	.st1{fill:none;stroke:#020203;stroke-width:24;stroke-linecap:round;stroke-linejoin:round;stroke-miterlimit:133.3333;}
</style>
<g id="Ebene_1">
	<path class="st0" d="M170.2,411.7c-56.9,0-103.1-46.2-103.1-103.1s46.2-103.1,103.1-103.1c20.6-48.5,68-82.5,123.7-82.5
		c70.7,0,128.7,54.8,134,124.3l10.3-0.6c45.6,0,82.5,36.9,82.5,82.5s-36.9,82.5-82.5,82.5l-37.4-0.6l0.3-40.7h37.1
		c22.8,0,41.2-18.5,41.2-41.2S461.1,288,438.3,288h-41.2v-20.6c0-56.9-46.2-103.1-103.1-103.1c-51.5,0-93.8,37.5-101.9,86.4
		c-6.8-2.5-14.2-3.9-21.9-3.9c-34.2,0-61.9,27.7-61.9,61.9s27.7,61.9,61.9,61.9h24v41.2"/>
	<line class="st1" x1="372.6" y1="356.9" x2="372.6" y2="429.8"/>
	<line class="st1" x1="333.7" y1="351.6" x2="333.7" y2="388"/>
	<line class="st1" x1="333.7" y1="424.4" x2="333.7" y2="474.2"/>
	<line class="st1" x1="258.8" y1="322.4" x2="258.8" y2="378.4"/>
	<line class="st1" x1="258.8" y1="412.2" x2="258.8" y2="445.1"/>
	<line class="st1" x1="223.7" y1="356.8" x2="223.7" y2="410.7"/>
	<line class="st1" x1="223.7" y1="448.3" x2="223.7" y2="493.7"/>
	<line class="st1" x1="297" y1="378.7" x2="297" y2="451.6"/>
</g>
<g id="Ebene_2">
</g>
</svg>
