<?xml version="1.0" encoding="utf-8"?>
<!-- Generator: Adobe Illustrator 24.2.2, SVG Export Plug-In . SVG Version: 6.00 Build 0)  -->
<svg version="1.1" id="Ebene_1" xmlns:serif="http://www.serif.com/"
	 xmlns="http://www.w3.org/2000/svg" xmlns:xlink="http://www.w3.org/1999/xlink" x="0px" y="0px" viewBox="0 0 595.3 841.9"
	 style="enable-background:new 0 0 595.3 841.9;" xml:space="preserve">
<style type="text/css">
	.st0{fill-rule:evenodd;clip-rule:evenodd;fill:#313132;}
</style>
<g id="Capabilities">
	<path id="Combined-Shape" class="st0" d="M293.9,123.3c40.9,0,74.3,33.3,74.3,74.3v278.3c16.5,11.2,30.4,26,40.5,43.3
		c11.8,20.2,18,43.2,18,66.7c0,35.5-13.8,68.8-38.9,93.8c-25.1,25.1-58.4,38.9-93.8,38.9s-68.8-13.8-93.8-38.9
		c-25.1-25.1-38.9-58.4-38.9-93.8c0-23.5,6.2-46.5,18-66.7c10-17.3,24-32.1,40.5-43.3V197.6C219.7,156.6,253,123.3,293.9,123.3z
		 M293.9,150.8c-12.4,0-24.2,4.9-33.1,13.7c-8.9,8.9-13.8,20.6-13.8,33.1v285.9c0,4.8-2.6,9.3-6.7,11.8
		c-15.5,9.2-28.4,22.2-37.5,37.7c-9.3,16-14.2,34.3-14.2,52.9c0,28.1,11,54.6,30.8,74.4c19.9,19.9,46.3,30.8,74.4,30.8
		c28.1,0,54.5-10.9,74.4-30.8c19.9-19.9,30.8-46.3,30.8-74.4c0-18.6-4.9-36.9-14.2-52.9c-9-15.5-22-28.6-37.5-37.7
		c-4.2-2.5-6.7-7-6.7-11.8V197.6c0-12.4-4.9-24.2-13.7-33.1C318.1,155.7,306.4,150.8,293.9,150.8z"/>
	<path id="Combined-Shape1" serif:id="Combined-Shape" class="st0" d="M314.9,185.3l-0.1,324.4c34.1,9.2,59.1,40.2,59.1,77.2
		c0,44.1-35.8,80-80,80s-80-35.8-80-80c0-37,25.1-68,59.1-77.2l-0.2-324.4H314.9z"/>
</g>
<g id="Capabilities_1_">
	<g transform="matrix(1.38958,0,0,1.38958,20.576,0.92913)">
		<g id="human-male.svg">
			<g>
				<path d="M315.9,107.8c13.6,0,24.8,11.2,24.8,24.8s-11.2,24.8-24.8,24.8s-24.8-11.2-24.8-24.8S302.3,107.8,315.9,107.8
					 M297.3,169.8h37.2c13.6,0,24.8,11.2,24.8,24.8v68.2h-18.6v93h-49.6v-93h-18.6v-68.2C272.5,181,283.7,169.8,297.3,169.8z"/>
			</g>
		</g>
	</g>
</g>
</svg>
