<?xml version="1.0" encoding="utf-8"?>
<!-- Generator: Adobe Illustrator 24.2.2, SVG Export Plug-In . SVG Version: 6.00 Build 0)  -->
<svg version="1.1" xmlns="http://www.w3.org/2000/svg" xmlns:xlink="http://www.w3.org/1999/xlink" x="0px" y="0px"
	 viewBox="0 0 566.9 566.9" style="enable-background:new 0 0 566.9 566.9;" xml:space="preserve">
<style type="text/css">
	.st0{fill:#020203;}
	.st1{fill:none;stroke:#020203;stroke-width:30;stroke-linecap:round;stroke-linejoin:round;stroke-miterlimit:133.3333;}
	.st2{fill:none;stroke:#020203;stroke-width:9;stroke-linecap:round;stroke-linejoin:round;stroke-miterlimit:133.3333;}
	.st3{fill:none;stroke:#030304;stroke-width:24;stroke-linecap:round;stroke-linejoin:round;stroke-miterlimit:133.3333;}
	.st4{display:none;}
</style>
<g id="Ebene_1">
	<path class="st0" d="M170.2,411.7c-56.9,0-103.1-46.2-103.1-103.1s46.2-103.1,103.1-103.1c20.6-48.5,68-82.5,123.7-82.5
		c70.7,0,128.7,54.8,134,124.3l10.3-0.6c45.6,0,82.5,36.9,82.5,82.5s-36.9,82.5-82.5,82.5l-37.4-0.6l0.3-40.7h37.1
		c22.8,0,41.2-18.5,41.2-41.2S461.1,288,438.3,288h-41.2v-20.6c0-56.9-46.2-103.1-103.1-103.1c-51.5,0-93.8,37.5-101.9,86.4
		c-6.8-2.5-14.2-3.9-21.9-3.9c-34.2,0-61.9,27.7-61.9,61.9s27.7,61.9,61.9,61.9h24v41.2"/>
	<line class="st1" x1="368.4" y1="432.8" x2="368.4" y2="432.8"/>
	<line class="st1" x1="368.4" y1="382.3" x2="368.4" y2="382.3"/>
	<line class="st1" x1="368.4" y1="483.4" x2="368.4" y2="483.4"/>
	<path class="st2" d="M121.1,229.5"/>
	<path class="st2" d="M169.6,229.5"/>
	<path class="st2" d="M145.3,237.6"/>
	<path class="st2" d="M180.3,185.1"/>
	<path class="st2" d="M189.2,218.2"/>
	<path class="st2" d="M213.5,176.2"/>
	<path class="st2" d="M208.3,201.3"/>
	<path class="st2" d="M213.5,153.6"/>
	<path class="st2" d="M208.3,128.5"/>
	<path class="st3" d="M332.9,461.9"/>
	<line class="st3" x1="258" y1="317.8" x2="258" y2="399.9"/>
	<line class="st3" x1="258" y1="399.9" x2="258" y2="432.8"/>
	<line class="st3" x1="222.9" y1="344.5" x2="222.9" y2="436"/>
	<line class="st3" x1="222.9" y1="436" x2="222.9" y2="481.4"/>
	<path class="st3" d="M296.2,439.3"/>
	<line class="st3" x1="332.9" y1="334.4" x2="332.9" y2="370.8"/>
	<line class="st3" x1="332.9" y1="407.2" x2="332.9" y2="457"/>
	<line class="st3" x1="296.2" y1="361.5" x2="296.2" y2="434.4"/>
</g>
<g id="Ebene_2" class="st4">
</g>
</svg>
