<?xml version="1.0" encoding="utf-8"?>

<!DOCTYPE svg PUBLIC "-//W3C//DTD SVG 1.1//EN" "http://www.w3.org/Graphics/SVG/1.1/DTD/svg11.dtd">
<svg height="800px" width="800px" version="1.1" id="_x32_" xmlns="http://www.w3.org/2000/svg" xmlns:xlink="http://www.w3.org/1999/xlink"
	 viewBox="0 0 512 512"  xml:space="preserve">
<style type="text/css">
	.st0{fill:#000000;}
</style>
<g>
	<path class="st0" d="M481.478,250.268c-15.889-15.902-37.029-26.616-60.508-29.59c-2.047-36.756-17.64-70-42.06-94.392
		c-26.192-26.219-62.529-42.474-102.519-42.465c-37.457-0.009-71.724,14.261-97.427,37.612
		c-22.111,20.059-37.948,46.94-44.359,77.28c-6.212-1.033-12.575-1.616-19.066-1.616c-31.858-0.008-60.83,12.947-81.696,33.844
		C12.955,251.804-0.004,280.776,0,312.634c-0.004,31.867,12.955,60.839,33.844,81.701c20.866,20.888,49.838,33.844,81.696,33.844
		h292.25c28.73,0,54.869-11.684,73.688-30.525c18.837-18.815,30.531-44.954,30.522-73.688
		C512.009,295.231,500.316,269.083,481.478,250.268z M462.254,378.424c-13.983,13.961-33.151,22.556-54.463,22.564H115.54
		c-24.441-0.008-46.442-9.866-62.476-25.883c-16.008-16.027-25.87-38.027-25.878-62.472c0.008-24.436,9.87-46.445,25.878-62.472
		c16.035-16.008,38.036-25.875,62.476-25.883c9.125,0,17.879,1.376,26.135,3.936l15.845,4.898l1.694-16.503
		c3.044-29.651,17.085-56.03,38.022-75.047c20.951-19,48.639-30.552,79.156-30.552c32.573,0,61.938,13.158,83.299,34.505
		c21.338,21.357,34.501,50.726,34.505,83.299c0,1.148-0.052,2.489-0.106,4.06l-0.516,14.623l14.441-0.556
		c21.22,0.07,40.304,8.648,54.238,22.557c13.961,13.987,22.557,33.155,22.561,54.467
		C484.81,345.277,476.215,364.445,462.254,378.424z"/>
</g>
</svg>
