<?xml version="1.0" encoding="utf-8"?>
<!-- Generator: Adobe Illustrator 24.2.2, SVG Export Plug-In . SVG Version: 6.00 Build 0)  -->
<svg version="1.1" xmlns="http://www.w3.org/2000/svg" xmlns:xlink="http://www.w3.org/1999/xlink" x="0px" y="0px"
	 viewBox="0 0 566.9 566.9" style="enable-background:new 0 0 566.9 566.9;" xml:space="preserve">
<style type="text/css">
	.st0{fill:#020203;}
</style>
<g id="Ebene_1">
	<path class="st0" d="M142,336.9c-2.1-15.4-1.6-31,1.6-46.4c5.7-27.6,19.7-53,40.3-73c20.6-19.9,46.9-33.5,75.5-39
		c28.6-5.5,58.2-2.7,85.2,8.1c26.9,10.8,50,29.1,66.2,52.5c16.2,23.4,24.8,51,24.8,79.2c0,6.3-0.4,12.5-1.3,18.6l-38.9,0
		c1.1-6.1,1.7-12.3,1.7-18.6c-0.1-27.9-11.6-54.7-32-74.4c-20.4-19.7-48.1-30.9-77-30.9c-21.5,0-42.6,6.2-60.5,17.8
		c-17.9,11.6-31.9,28-40.1,47.3c-8,18.6-10.3,39.1-6.6,58.9"/>
	<path class="st0" d="M288.1,144.8c-5.1-0.1-9.9-2-13.5-5.5c-3.6-3.5-5.6-8.2-5.7-13.1V89c0-4.9,2-9.7,5.6-13.1
		c3.6-3.5,8.5-5.4,13.6-5.4c5.1,0,10,2,13.6,5.4c3.6,3.5,5.6,8.2,5.6,13.1v37.2c-0.1,4.9-2.1,9.6-5.7,13.1
		C298,142.8,293.2,144.7,288.1,144.8z"/>
	<path class="st0" d="M525.2,336.9h-38.5c-5.1,0-10-2-13.6-5.4c-3.6-3.5-5.6-8.2-5.6-13.1c0-4.9,2-9.7,5.6-13.1
		c3.6-3.5,8.5-5.4,13.6-5.4h38.5c5.1,0,10,2,13.6,5.4c3.6,3.5,5.6,8.2,5.6,13.1c0,4.9-2,9.7-5.6,13.1
		C535.2,335,530.3,336.9,525.2,336.9z"/>
	<path class="st0" d="M89.4,336.9H51c-5.1,0-10-2-13.6-5.4c-3.6-3.5-5.6-8.2-5.6-13.1c0-4.9,2-9.7,5.6-13.1
		c3.6-3.5,8.5-5.4,13.6-5.4h38.5c5.1,0,10,2,13.6,5.4c3.6,3.5,5.6,8.2,5.6,13.1c0,4.9-2,9.7-5.6,13.1
		C99.4,335,94.5,336.9,89.4,336.9z"/>
	<path class="st0" d="M147.1,200.6c-4.9-0.4-9.5-2.6-12.8-6.2l-27.9-24.8c-1.8-1.8-3.3-3.9-4.3-6.2c-1-2.3-1.5-4.8-1.5-7.3
		c0-2.5,0.5-5,1.5-7.3c1-2.3,2.4-4.4,4.3-6.2c1.8-1.8,4-3.2,6.4-4.1c2.4-1,5-1.5,7.6-1.5c2.6,0,5.2,0.5,7.6,1.5
		c2.4,1,4.6,2.4,6.4,4.1l25.6,27c3.2,3.4,4.9,7.8,4.9,12.4c0,4.6-1.7,9-4.9,12.4C156.7,198,152.1,200.2,147.1,200.6z"/>
	<path class="st0" d="M429.1,200.6c-4.9-0.4-9.5-2.6-12.8-6.2c-3.2-3.4-4.9-7.8-4.9-12.4c0-4.6,1.7-9,4.9-12.4l25.6-27
		c3.7-3.6,8.7-5.6,14-5.6c5.2,0,10.3,2,14,5.6c3.7,3.6,5.8,8.4,5.8,13.5c0,5.1-2.1,9.9-5.8,13.5l-27.9,24.8
		C438.7,198,434.1,200.2,429.1,200.6z"/>
	<g>
		<g>
			<path class="st0" d="M24.7,392.5c17.4,0,34.7,0,52.1,0c41.3,0,82.6,0,123.9,0c50.1,0,100.2,0,150.3,0c43.3,0,86.6,0,129.9,0
				c21,0,42,0.6,63,0c0.3,0,0.6,0,0.9,0c7.8,0,15.4-6.9,15-15c-0.4-8.1-6.6-15-15-15c-17.4,0-34.7,0-52.1,0c-41.3,0-82.6,0-123.9,0
				c-50.1,0-100.2,0-150.3,0c-43.3,0-86.6,0-129.9,0c-21,0-42-0.6-63,0c-0.3,0-0.6,0-0.9,0c-7.8,0-15.4,6.9-15,15
				C10.1,385.7,16.3,392.5,24.7,392.5L24.7,392.5z"/>
		</g>
	</g>
</g>
<g id="Ebene_2">
	<g>
		<g>
			<path class="st0" d="M298.7,547.8c16.6-12.9,33.1-25.8,49.7-38.7c26.4-20.6,52.9-41.2,79.3-61.8c6.1-4.8,12.2-9.5,18.4-14.3
				c6.4-5,5.2-16,0-21.2c-6.3-6.3-14.8-5-21.2,0c-16.6,12.9-33.1,25.8-49.7,38.7c-26.4,20.6-52.9,41.2-79.3,61.8
				c-6.1,4.8-12.2,9.5-18.4,14.3c-6.4,5-5.2,16,0,21.2C283.8,554.1,292.3,552.8,298.7,547.8L298.7,547.8z"/>
		</g>
	</g>
	<g>
		<g>
			<path class="st0" d="M298.7,526.6c-16.5-12.8-33.1-25.6-49.6-38.4c-26.5-20.5-53-41.1-79.6-61.6c-6.1-4.7-12.1-9.4-18.2-14.1
				c-6.4-5-15-6.2-21.2,0c-5.2,5.2-6.4,16.2,0,21.2c16.5,12.8,33.1,25.6,49.6,38.4c26.5,20.5,53,41.1,79.6,61.6
				c6.1,4.7,12.1,9.4,18.2,14.1c6.4,5,15,6.2,21.2,0C303.9,542.6,305.2,531.5,298.7,526.6L298.7,526.6z"/>
		</g>
	</g>
</g>
</svg>
